<svg xmlns="http://www.w3.org/2000/svg" xmlns:xlink="http://www.w3.org/1999/xlink" width="700" height="500">
<defs>
<style type="text/css"><![CDATA[
  .borderLine {
	   stroke: none;
	   fill-opacity:  0.4 ;
  }
  .outLine {
	   stroke-width:  1 ;
	   fill: none;
  }
  .circle {
	   stroke: #888888;
	   stroke-width: 0.5;
	   fill: none;
    pointer-events: all;
  }
  .nLabel {
	   font-family: Arial;
    pointer-events: none;
	   font-size: 10px;
	   text-anchor: middle;
	   alignment-baseline: central;
  }
  .belong {
	   font-family: Arial;
    pointer-events: none;
	   font-size: 5px;
	   text-anchor: middle;
	   alignment-baseline: central;
  }
  .legend {
    font-family: Arial;
    font-size: 15px;
  }
  #legendBox {
    display:  inline ;
  }
  .p0{
    stroke: none;
    fill: #e6194b;
  }
  .q0{
    fill: none;
    stroke: #e6194b;
  }
  .p1{
    stroke: none;
    fill: #3cb44b;
  }
  .q1{
    fill: none;
    stroke: #3cb44b;
  }
  .p2{
    stroke: none;
    fill: #ffe119;
  }
  .q2{
    fill: none;
    stroke: #ffe119;
  }
  .p3{
    stroke: none;
    fill: #0082c8;
  }
  .q3{
    fill: none;
    stroke: #0082c8;
  }
]]>
</style>
<symbol id="bl0">
<path d="M 401.77 360.39 L 398.54 363.64 L 395.26 366.85 L 391.90 369.99 L 388.46 373.04 L 384.94 376.01 L 381.34 378.90 L 377.69 381.72 L 374.00 384.47 L 370.26 387.16 L 366.51 389.82 L 362.74 392.46 L 358.97 395.09 L 355.20 397.72 L 351.43 400.35 L 347.66 402.98 L 343.89 405.61 L 340.12 408.23 L 336.34 410.86 L 332.57 413.48 L 328.80 416.11 L 325.03 418.74 L 321.26 421.36 L 317.49 423.99 L 313.72 426.61 L 309.95 429.23 L 306.18 431.86 L 302.41 434.48 L 298.64 437.11 L 294.87 439.73 L 291.10 442.36 L 287.33 444.98 L 283.56 447.60 L 279.79 450.22 L 276.02 452.85 L 272.25 455.46 L 268.48 458.08 L 264.70 460.69 L 260.91 463.27 L 257.09 465.82 L 253.23 468.28 L 249.30 470.66 L 245.32 472.91 L 241.27 475.05 L 237.15 477.05 L 232.96 478.91 L 228.72 480.64 L 224.42 482.23 L 220.08 483.67 L 215.69 484.97 L 211.26 486.12 L 206.79 487.12 L 202.29 487.98 L 197.77 488.68 L 193.22 489.24 L 188.66 489.64 L 184.09 489.90 L 179.51 490.00 L 174.93 489.95 L 170.36 489.75 L 165.79 489.40 L 161.23 488.90 L 156.70 488.24 L 152.19 487.44 L 147.71 486.49 L 143.26 485.39 L 138.85 484.14 L 134.49 482.75 L 130.17 481.21 L 125.91 479.54 L 121.71 477.72 L 117.57 475.76 L 113.49 473.67 L 109.49 471.45 L 105.56 469.09 L 101.71 466.61 L 97.95 464.00 L 94.27 461.26 L 90.68 458.41 L 87.20 455.44 L 83.81 452.35 L 80.53 449.16 L 77.35 445.86 L 74.29 442.45 L 71.34 438.95 L 68.50 435.35 L 65.79 431.66 L 63.20 427.88 L 60.74 424.02 L 58.40 420.08 L 56.20 416.06 L 54.13 411.98 L 52.20 407.82 L 50.41 403.61 L 48.75 399.34 L 47.24 395.02 L 45.87 390.65 L 44.65 386.24 L 43.58 381.78 L 42.65 377.30 L 41.87 372.78 L 41.24 368.25 L 40.76 363.69 L 40.43 359.12 L 40.25 354.55 L 40.22 349.96 L 40.35 345.39 L 40.62 340.82 L 41.05 336.26 L 41.63 331.72 L 42.36 327.20 L 43.23 322.70 L 44.26 318.24 L 45.43 313.82 L 46.75 309.43 L 48.21 305.09 L 49.81 300.80 L 51.56 296.57 L 53.44 292.40 L 55.46 288.29 L 57.62 284.26 L 59.91 280.29 L 62.33 276.40 L 64.87 272.60 L 67.54 268.88 L 70.33 265.26 L 73.24 261.72 L 76.26 258.29 L 79.40 254.96 L 82.65 251.73 L 86.00 248.61 L 89.45 245.61 L 93.00 242.72 L 96.64 239.95 L 100.37 237.30 L 104.19 234.78 L 108.09 232.38 L 112.06 230.12 L 116.11 227.98 L 120.23 225.99 L 124.41 224.13 L 128.65 222.41 L 132.95 220.83 L 137.29 219.40 L 141.68 218.11 L 146.12 216.96 L 150.58 215.96 L 155.08 215.11 L 159.61 214.41 L 164.15 213.86 L 168.71 213.46 L 173.28 213.21 L 177.85 213.12 L 182.43 213.16 L 187.01 213.35 L 191.58 213.65 L 196.15 214.06 L 200.71 214.52 L 205.27 215.03 L 209.83 215.55 L 214.38 216.07 L 218.94 216.60 L 223.50 217.14 L 228.06 217.67 L 232.62 218.20 L 237.17 218.74 L 241.73 219.28 L 246.29 219.81 L 250.85 220.35 L 255.40 220.88 L 259.96 221.41 L 264.52 221.94 L 269.08 222.47 L 273.64 223.00 L 278.21 223.54 L 282.77 224.06 L 287.34 224.57 L 291.90 225.05 L 296.48 225.44 L 301.04 225.69 L 305.60 225.69 L 310.12 225.37 L 314.61 224.72 L 319.09 223.85 L 323.58 222.96 L 328.12 222.22 L 332.68 221.77 L 337.25 221.72 L 341.80 222.12 L 346.28 222.98 L 350.66 224.28 L 354.93 225.97 L 359.10 227.97 L 363.19 230.15 L 367.27 232.39 L 371.36 234.59 L 375.52 236.65 L 379.77 238.48 L 384.14 240.03 L 388.60 241.22 L 393.15 242.04 L 397.77 242.47 L 402.42 242.55 L 407.09 242.39 L 411.76 242.15 L 416.41 242.07 L 421.00 242.30 L 425.51 242.95 L 429.91 244.07 L 434.14 245.65 L 438.16 247.69 L 441.94 250.16 L 445.42 253.03 L 448.56 256.26 L 451.34 259.82 L 453.70 263.67 L 455.62 267.75 L 457.09 272.02 L 458.08 276.42 L 458.58 280.91 L 458.58 285.41 L 458.09 289.90 L 457.12 294.31 L 455.68 298.60 L 453.80 302.72 L 451.55 306.67 L 448.98 310.42 L 446.15 314.01 L 443.15 317.46 L 440.05 320.82 L 436.89 324.15 L 433.71 327.45 L 430.52 330.75 L 427.33 334.05 L 424.14 337.34 L 420.95 340.63 L 417.76 343.93 L 414.56 347.23 L 411.37 350.52 L 408.17 353.82 L 404.98 357.11 Z" />
</symbol>
<symbol id="bl1">
<path d="M 332.83 211.58 L 331.43 213.66 L 329.88 215.63 L 328.17 217.47 L 326.31 219.17 L 324.32 220.71 L 322.21 222.10 L 319.98 223.31 L 317.66 224.35 L 315.26 225.19 L 312.82 225.84 L 310.34 226.29 L 307.83 226.54 L 305.32 226.58 L 302.81 226.42 L 300.32 226.06 L 297.88 225.50 L 295.48 224.75 L 293.15 223.80 L 290.91 222.68 L 288.76 221.38 L 286.71 219.91 L 284.77 218.30 L 282.94 216.57 L 281.20 214.74 L 279.55 212.83 L 277.95 210.87 L 276.39 208.87 L 274.84 206.87 L 273.30 204.86 L 271.77 202.85 L 270.24 200.85 L 268.70 198.83 L 267.17 196.82 L 265.64 194.80 L 264.10 192.79 L 262.57 190.78 L 261.03 188.77 L 259.50 186.77 L 257.97 184.75 L 256.44 182.74 L 254.91 180.73 L 253.38 178.72 L 251.84 176.71 L 250.31 174.70 L 248.77 172.68 L 247.24 170.67 L 245.71 168.66 L 244.18 166.65 L 242.65 164.64 L 241.12 162.63 L 239.58 160.61 L 238.05 158.60 L 236.52 156.59 L 234.99 154.58 L 233.46 152.57 L 231.93 150.56 L 230.40 148.55 L 228.87 146.54 L 227.34 144.53 L 225.81 142.52 L 224.29 140.50 L 222.78 138.47 L 221.29 136.43 L 219.83 134.38 L 218.40 132.29 L 217.03 130.17 L 215.72 128.01 L 214.47 125.82 L 213.29 123.58 L 212.19 121.32 L 211.16 119.01 L 210.20 116.68 L 209.32 114.32 L 208.52 111.93 L 207.79 109.51 L 207.15 107.07 L 206.58 104.61 L 206.09 102.13 L 205.69 99.64 L 205.36 97.14 L 205.11 94.63 L 204.95 92.12 L 204.87 89.60 L 204.87 87.07 L 204.95 84.55 L 205.11 82.04 L 205.35 79.53 L 205.67 77.02 L 206.07 74.53 L 206.56 72.05 L 207.12 69.59 L 207.76 67.15 L 208.48 64.73 L 209.28 62.34 L 210.16 59.97 L 211.11 57.63 L 212.14 55.33 L 213.24 53.06 L 214.41 50.82 L 215.65 48.63 L 216.97 46.47 L 218.35 44.36 L 219.80 42.29 L 221.32 40.27 L 222.90 38.30 L 224.55 36.39 L 226.25 34.53 L 228.01 32.72 L 229.84 30.97 L 231.72 29.28 L 233.65 27.65 L 235.63 26.09 L 237.66 24.59 L 239.74 23.15 L 241.87 21.79 L 244.03 20.49 L 246.24 19.26 L 248.49 18.10 L 250.77 17.02 L 253.09 16.01 L 255.43 15.08 L 257.81 14.23 L 260.22 13.44 L 262.65 12.74 L 265.10 12.12 L 267.56 11.57 L 270.05 11.11 L 272.54 10.73 L 275.05 10.42 L 277.57 10.20 L 280.09 10.06 L 282.62 10.00 L 285.15 10.02 L 287.68 10.13 L 290.20 10.31 L 292.71 10.57 L 295.21 10.92 L 297.71 11.35 L 300.18 11.86 L 302.64 12.45 L 305.08 13.11 L 307.50 13.86 L 309.89 14.68 L 312.25 15.58 L 314.58 16.55 L 316.88 17.60 L 319.14 18.73 L 321.37 19.92 L 323.56 21.19 L 325.70 22.53 L 327.81 23.93 L 329.86 25.40 L 331.87 26.94 L 333.82 28.55 L 335.72 30.21 L 337.57 31.94 L 339.36 33.72 L 341.09 35.57 L 342.77 37.46 L 344.37 39.41 L 345.92 41.41 L 347.40 43.46 L 348.81 45.56 L 350.16 47.70 L 351.43 49.88 L 352.64 52.10 L 353.77 54.36 L 354.82 56.66 L 355.80 58.99 L 356.71 61.35 L 357.54 63.73 L 358.30 66.15 L 358.97 68.58 L 359.56 71.04 L 360.07 73.51 L 360.50 76.00 L 360.85 78.51 L 361.12 81.02 L 361.31 83.55 L 361.42 86.07 L 361.45 88.60 L 361.40 91.13 L 361.26 93.65 L 361.05 96.17 L 360.75 98.68 L 360.38 101.19 L 359.94 103.68 L 359.45 106.16 L 358.92 108.64 L 358.37 111.11 L 357.80 113.58 L 357.23 116.05 L 356.65 118.52 L 356.08 120.99 L 355.51 123.45 L 354.93 125.92 L 354.36 128.39 L 353.79 130.85 L 353.21 133.32 L 352.63 135.79 L 352.06 138.26 L 351.48 140.72 L 350.90 143.19 L 350.32 145.66 L 349.74 148.13 L 349.17 150.60 L 348.59 153.07 L 348.01 155.53 L 347.44 158.00 L 346.86 160.47 L 346.28 162.94 L 345.71 165.41 L 345.13 167.88 L 344.55 170.34 L 343.97 172.81 L 343.39 175.29 L 342.82 177.75 L 342.24 180.22 L 341.66 182.68 L 341.08 185.15 L 340.50 187.62 L 339.93 190.09 L 339.35 192.56 L 338.76 195.03 L 338.17 197.49 L 337.54 199.94 L 336.85 202.37 L 336.06 204.77 L 335.14 207.11 L 334.06 209.39 Z" />
</symbol>
<symbol id="bl2">
<path d="M 451.50 308.22 L 450.10 310.01 L 448.61 311.71 L 447.03 313.34 L 445.36 314.88 L 443.62 316.33 L 441.80 317.68 L 439.91 318.93 L 437.95 320.08 L 435.93 321.12 L 433.86 322.05 L 431.75 322.87 L 429.59 323.57 L 427.40 324.16 L 425.18 324.62 L 422.94 324.97 L 420.68 325.19 L 418.42 325.30 L 416.15 325.28 L 413.89 325.14 L 411.64 324.88 L 409.40 324.49 L 407.19 323.99 L 405.01 323.37 L 402.86 322.63 L 400.75 321.77 L 398.70 320.80 L 396.70 319.71 L 394.75 318.50 L 392.84 317.18 L 390.95 315.74 L 389.08 314.22 L 387.20 312.67 L 385.29 311.15 L 383.33 309.70 L 381.32 308.37 L 379.25 307.15 L 377.13 306.07 L 374.94 305.10 L 372.71 304.26 L 370.42 303.56 L 368.11 302.98 L 365.76 302.53 L 363.39 302.22 L 361.01 302.05 L 358.62 302.01 L 356.22 302.11 L 353.82 302.35 L 351.41 302.70 L 349.00 303.15 L 346.59 303.63 L 344.20 304.08 L 341.83 304.45 L 339.49 304.70 L 337.15 304.83 L 334.82 304.83 L 332.49 304.69 L 330.19 304.43 L 327.90 304.04 L 325.64 303.52 L 323.41 302.87 L 321.21 302.11 L 319.07 301.22 L 316.97 300.22 L 314.94 299.10 L 312.97 297.88 L 311.07 296.54 L 309.24 295.10 L 307.50 293.56 L 305.85 291.92 L 304.29 290.19 L 302.83 288.36 L 301.45 286.44 L 300.18 284.43 L 299.00 282.35 L 297.94 280.22 L 297.01 278.05 L 296.20 275.85 L 295.52 273.62 L 294.98 271.36 L 294.56 269.07 L 294.28 266.77 L 294.12 264.46 L 294.09 262.14 L 294.19 259.82 L 294.41 257.51 L 294.77 255.22 L 295.24 252.95 L 295.85 250.71 L 296.57 248.51 L 297.42 246.35 L 298.38 244.24 L 299.46 242.18 L 300.65 240.19 L 301.94 238.27 L 303.34 236.42 L 304.84 234.65 L 306.44 232.97 L 308.13 231.38 L 309.91 229.88 L 311.77 228.47 L 313.72 227.16 L 315.74 225.93 L 317.82 224.76 L 319.90 223.60 L 321.94 222.41 L 323.89 221.14 L 325.74 219.77 L 327.47 218.28 L 329.08 216.69 L 330.58 214.99 L 331.95 213.19 L 333.22 211.31 L 334.39 209.36 L 335.51 207.38 L 336.59 205.37 L 337.65 203.35 L 338.70 201.33 L 339.74 199.30 L 340.78 197.28 L 341.83 195.25 L 342.87 193.23 L 343.91 191.20 L 344.95 189.17 L 345.99 187.14 L 347.03 185.11 L 348.08 183.08 L 349.12 181.06 L 350.16 179.03 L 351.20 177.01 L 352.26 174.98 L 353.33 172.97 L 354.42 170.97 L 355.55 168.99 L 356.73 167.04 L 357.97 165.13 L 359.29 163.28 L 360.68 161.48 L 362.16 159.75 L 363.70 158.09 L 365.33 156.50 L 367.02 154.98 L 368.77 153.54 L 370.60 152.18 L 372.47 150.91 L 374.41 149.72 L 376.40 148.62 L 378.44 147.62 L 380.52 146.70 L 382.63 145.88 L 384.79 145.15 L 386.97 144.53 L 389.18 144.00 L 391.41 143.58 L 393.66 143.25 L 395.92 143.03 L 398.19 142.91 L 400.46 142.89 L 402.73 142.97 L 405.00 143.16 L 407.25 143.45 L 409.49 143.84 L 411.71 144.33 L 413.90 144.92 L 416.07 145.61 L 418.20 146.40 L 420.29 147.28 L 422.35 148.26 L 424.35 149.32 L 426.31 150.48 L 428.21 151.72 L 430.05 153.05 L 431.83 154.45 L 433.54 155.94 L 435.19 157.51 L 436.76 159.14 L 438.26 160.85 L 439.68 162.62 L 441.02 164.45 L 442.28 166.35 L 443.45 168.29 L 444.53 170.29 L 445.51 172.34 L 446.41 174.43 L 447.21 176.55 L 447.91 178.71 L 448.52 180.90 L 449.05 183.12 L 449.49 185.36 L 449.86 187.60 L 450.18 189.86 L 450.46 192.12 L 450.73 194.38 L 450.98 196.64 L 451.22 198.91 L 451.46 201.18 L 451.71 203.44 L 451.95 205.70 L 452.19 207.97 L 452.43 210.23 L 452.68 212.50 L 452.92 214.77 L 453.16 217.04 L 453.40 219.30 L 453.65 221.57 L 453.89 223.83 L 454.14 226.10 L 454.38 228.37 L 454.62 230.64 L 454.87 232.90 L 455.11 235.17 L 455.35 237.43 L 455.60 239.69 L 455.84 241.96 L 456.08 244.23 L 456.33 246.50 L 456.57 248.76 L 456.82 251.02 L 457.06 253.29 L 457.31 255.55 L 457.55 257.82 L 457.79 260.09 L 458.03 262.36 L 458.28 264.62 L 458.52 266.89 L 458.76 269.15 L 458.99 271.41 L 459.22 273.68 L 459.43 275.95 L 459.61 278.23 L 459.73 280.50 L 459.78 282.77 L 459.72 285.04 L 459.55 287.30 L 459.27 289.55 L 458.86 291.78 L 458.34 293.99 L 457.70 296.17 L 456.94 298.31 L 456.07 300.40 L 455.09 302.45 L 454.00 304.44 L 452.80 306.36 Z" />
</symbol>
<symbol id="bl3">
<path d="M 434.00 390.76 L 434.66 393.52 L 435.08 396.31 L 435.25 399.13 L 435.17 401.95 L 434.83 404.76 L 434.24 407.52 L 433.40 410.21 L 432.32 412.82 L 431.01 415.33 L 429.48 417.70 L 427.73 419.93 L 425.80 421.98 L 423.69 423.85 L 421.41 425.53 L 418.99 426.99 L 416.45 428.22 L 413.81 429.22 L 411.09 429.98 L 408.31 430.49 L 405.50 430.75 L 402.67 430.75 L 399.86 430.49 L 397.08 429.98 L 394.36 429.22 L 391.72 428.22 L 389.17 426.99 L 386.73 425.56 L 384.39 423.94 L 382.14 422.18 L 379.95 420.34 L 377.80 418.44 L 375.67 416.53 L 373.54 414.60 L 371.42 412.67 L 369.29 410.74 L 367.16 408.81 L 365.04 406.88 L 362.92 404.94 L 360.80 403.00 L 358.68 401.07 L 356.56 399.14 L 354.44 397.20 L 352.31 395.27 L 350.18 393.33 L 348.06 391.39 L 345.94 389.46 L 343.82 387.53 L 341.70 385.59 L 339.58 383.66 L 337.46 381.72 L 335.35 379.77 L 333.27 377.80 L 331.22 375.79 L 329.24 373.72 L 327.36 371.57 L 325.60 369.32 L 323.97 366.97 L 322.50 364.52 L 321.20 361.98 L 320.08 359.35 L 319.15 356.63 L 318.39 353.83 L 317.82 350.96 L 317.39 348.03 L 317.09 345.08 L 316.84 342.17 L 316.60 339.32 L 316.34 336.54 L 316.04 333.81 L 315.69 331.11 L 315.27 328.42 L 314.79 325.75 L 314.27 323.09 L 313.69 320.44 L 313.05 317.81 L 312.36 315.19 L 311.62 312.58 L 310.84 309.99 L 309.99 307.41 L 309.10 304.85 L 308.17 302.31 L 307.17 299.79 L 306.13 297.28 L 305.05 294.79 L 303.91 292.33 L 302.73 289.88 L 301.51 287.45 L 300.28 285.02 L 299.07 282.60 L 297.94 280.17 L 296.89 277.71 L 295.95 275.23 L 295.08 272.74 L 294.28 270.23 L 293.52 267.71 L 292.78 265.18 L 292.05 262.65 L 291.33 260.12 L 290.61 257.59 L 289.89 255.07 L 289.17 252.54 L 288.45 250.01 L 287.73 247.48 L 287.01 244.95 L 286.29 242.42 L 285.58 239.89 L 284.86 237.36 L 284.15 234.83 L 283.43 232.31 L 282.72 229.78 L 282.01 227.24 L 281.29 224.71 L 280.57 222.18 L 279.85 219.65 L 279.14 217.12 L 278.42 214.59 L 277.72 212.06 L 277.03 209.52 L 276.39 206.97 L 275.81 204.41 L 275.33 201.83 L 274.99 199.23 L 274.81 196.62 L 274.83 194.01 L 275.05 191.41 L 275.49 188.83 L 276.14 186.31 L 276.99 183.84 L 278.05 181.46 L 279.30 179.17 L 280.74 177.00 L 282.35 174.95 L 284.14 173.05 L 286.08 171.31 L 288.19 169.74 L 290.45 168.35 L 292.88 167.14 L 295.48 166.12 L 298.23 165.31 L 301.07 164.71 L 303.93 164.33 L 306.73 164.20 L 309.46 164.32 L 312.11 164.68 L 314.70 165.28 L 317.20 166.10 L 319.63 167.13 L 321.95 168.37 L 324.17 169.80 L 326.25 171.41 L 328.20 173.18 L 330.01 175.10 L 331.68 177.16 L 333.22 179.31 L 334.66 181.55 L 336.04 183.82 L 337.39 186.12 L 338.72 188.43 L 340.05 190.75 L 341.38 193.06 L 342.71 195.37 L 344.05 197.69 L 345.38 200.00 L 346.71 202.32 L 348.04 204.64 L 349.37 206.95 L 350.69 209.26 L 352.03 211.57 L 353.38 213.87 L 354.75 216.16 L 356.16 218.42 L 357.62 220.66 L 359.13 222.87 L 360.68 225.04 L 362.27 227.19 L 363.89 229.31 L 365.52 231.43 L 367.14 233.55 L 368.72 235.69 L 370.24 237.88 L 371.67 240.12 L 373.00 242.43 L 374.19 244.81 L 375.24 247.25 L 376.14 249.75 L 376.88 252.30 L 377.45 254.90 L 377.85 257.53 L 378.06 260.21 L 378.09 262.94 L 377.93 265.76 L 377.60 268.69 L 377.14 271.73 L 376.64 274.83 L 376.20 277.93 L 375.92 280.98 L 375.83 283.95 L 375.94 286.86 L 376.27 289.72 L 376.80 292.53 L 377.52 295.30 L 378.43 298.00 L 379.53 300.64 L 380.81 303.20 L 382.25 305.66 L 383.85 308.03 L 385.59 310.31 L 387.42 312.52 L 389.29 314.70 L 391.14 316.89 L 392.91 319.14 L 394.60 321.45 L 396.20 323.82 L 397.74 326.23 L 399.23 328.66 L 400.70 331.10 L 402.16 333.55 L 403.61 336.01 L 405.06 338.47 L 406.51 340.93 L 407.95 343.38 L 409.40 345.84 L 410.84 348.31 L 412.29 350.76 L 413.74 353.22 L 415.19 355.68 L 416.64 358.13 L 418.09 360.60 L 419.53 363.05 L 420.98 365.51 L 422.42 367.96 L 423.87 370.42 L 425.31 372.88 L 426.75 375.35 L 428.17 377.82 L 429.54 380.31 L 430.85 382.85 L 432.06 385.43 L 433.12 388.06 Z" />
</symbol>
</defs>
<!-- isDone: 0 -->
<rect width="700" height="500" style="fill:#fff;stroke-width:0" />
<use class="p0 borderLine" xlink:href="#bl0"/>
<use class="p1 borderLine" xlink:href="#bl1"/>
<use class="p2 borderLine" xlink:href="#bl2"/>
<use class="p3 borderLine" xlink:href="#bl3"/>
<use class="q0 outLine" xlink:href="#bl0"/>
<use class="q1 outLine" xlink:href="#bl1"/>
<use class="q2 outLine" xlink:href="#bl2"/>
<use class="q3 outLine" xlink:href="#bl3"/>
<circle onclick="fromCircle(8)" class="circle" cx="178.1484" cy="351.8055" r="132.8503" />
<text class="nLabel" x="178.15" y="346.81">27</text>
<text class="belong" x="178.15" y="356.81">(1)</text>
<circle onclick="fromCircle(4)" class="circle" cx="283.0272" cy="87.8186" r="72.3146" />
<text class="nLabel" x="283.03" y="82.82">8</text>
<text class="belong" x="283.03" y="92.82">(2)</text>
<circle onclick="fromCircle(5)" class="circle" cx="306.0368" cy="195.1882" r="25.5671" />
<text class="nLabel" x="306.04" y="190.19">1</text>
<text class="belong" x="306.04" y="200.19">(2, 4)</text>
<circle onclick="fromCircle(2)" class="circle" cx="399.8224" cy="193.0493" r="44.2834" />
<text class="nLabel" x="399.82" y="188.05">3</text>
<text class="belong" x="399.82" y="198.05">(3)</text>
<circle onclick="fromCircle(10)" class="circle" cx="417.7307" cy="283.2215" r="36.1573" />
<text class="nLabel" x="417.73" y="278.22">2</text>
<text class="belong" x="417.73" y="288.22">(1, 3)</text>
<circle onclick="fromCircle(11)" class="circle" cx="336.2004" cy="262.7559" r="36.1573" />
<text class="nLabel" x="336.20" y="257.76">2</text>
<text class="belong" x="336.20" y="267.76">(1, 3, 4)</text>
<circle onclick="fromCircle(1)" class="circle" cx="404.2264" cy="399.9040" r="25.5671" />
<text class="nLabel" x="404.23" y="394.90">1</text>
<text class="belong" x="404.23" y="404.90">(4)</text>
<circle onclick="fromCircle(9)" class="circle" cx="359.1171" cy="344.1865" r="36.1573" />
<text class="nLabel" x="359.12" y="339.19">2</text>
<text class="belong" x="359.12" y="349.19">(1, 4)</text>
<g id="legendBox">
<rect class="p0 borderLine" x="500.00" y="50.00" width="30.00" height="15.00" />
<rect class="q0" x="500.00" y="50.00" width="30.00" height="15.00" />
<text class="legend" x="540.00" y="65.00">fF12</text>
<rect class="p1 borderLine" x="500.00" y="90.00" width="30.00" height="15.00" />
<rect class="q1" x="500.00" y="90.00" width="30.00" height="15.00" />
<text class="legend" x="540.00" y="105.00">fM12</text>
<rect class="p2 borderLine" x="500.00" y="130.00" width="30.00" height="15.00" />
<rect class="q2" x="500.00" y="130.00" width="30.00" height="15.00" />
<text class="legend" x="540.00" y="145.00">gF12</text>
<rect class="p3 borderLine" x="500.00" y="170.00" width="30.00" height="15.00" />
<rect class="q3" x="500.00" y="170.00" width="30.00" height="15.00" />
<text class="legend" x="540.00" y="185.00">gM12</text>
</g>
</svg>
