<svg xmlns="http://www.w3.org/2000/svg" xmlns:xlink="http://www.w3.org/1999/xlink" width="700" height="500">
<defs>
<style type="text/css"><![CDATA[
  .borderLine {
	   stroke: none;
	   fill-opacity:  0.4 ;
  }
  .outLine {
	   stroke-width:  1 ;
	   fill: none;
  }
  .circle {
	   stroke: #888888;
	   stroke-width: 0.5;
	   fill: none;
    pointer-events: all;
  }
  .nLabel {
	   font-family: Arial;
    pointer-events: none;
	   font-size: 10px;
	   text-anchor: middle;
	   alignment-baseline: central;
  }
  .belong {
	   font-family: Arial;
    pointer-events: none;
	   font-size: 5px;
	   text-anchor: middle;
	   alignment-baseline: central;
  }
  .legend {
    font-family: Arial;
    font-size: 15px;
  }
  #legendBox {
    display:  inline ;
  }
  .p0{
    stroke: none;
    fill: #e6194b;
  }
  .q0{
    fill: none;
    stroke: #e6194b;
  }
  .p1{
    stroke: none;
    fill: #3cb44b;
  }
  .q1{
    fill: none;
    stroke: #3cb44b;
  }
  .p2{
    stroke: none;
    fill: #ffe119;
  }
  .q2{
    fill: none;
    stroke: #ffe119;
  }
  .p3{
    stroke: none;
    fill: #0082c8;
  }
  .q3{
    fill: none;
    stroke: #0082c8;
  }
]]>
</style>
<symbol id="bl0">
<path d="M 336.54 299.85 L 333.31 299.97 L 330.08 299.92 L 326.85 299.68 L 323.62 299.25 L 320.38 298.65 L 317.11 297.89 L 313.82 297.03 L 310.51 296.18 L 307.19 295.48 L 303.89 295.05 L 300.60 294.92 L 297.36 295.14 L 294.16 295.69 L 291.03 296.58 L 288.01 297.78 L 285.14 299.29 L 282.43 301.09 L 279.92 303.15 L 277.65 305.46 L 275.63 307.98 L 273.87 310.69 L 272.40 313.58 L 271.22 316.60 L 270.34 319.73 L 269.74 322.93 L 269.38 326.18 L 269.18 329.46 L 269.08 332.74 L 269.00 336.02 L 268.87 339.30 L 268.61 342.57 L 268.22 345.83 L 267.67 349.07 L 266.96 352.27 L 266.10 355.44 L 265.09 358.55 L 263.92 361.60 L 262.61 364.58 L 261.15 367.50 L 259.55 370.35 L 257.80 373.12 L 255.91 375.80 L 253.89 378.39 L 251.74 380.87 L 249.48 383.25 L 247.10 385.50 L 244.62 387.63 L 242.03 389.63 L 239.36 391.50 L 236.60 393.24 L 233.76 394.83 L 230.84 396.28 L 227.85 397.58 L 224.80 398.73 L 221.69 399.73 L 218.54 400.58 L 215.37 401.27 L 212.17 401.80 L 208.95 402.18 L 205.73 402.40 L 202.51 402.45 L 199.29 402.35 L 196.08 402.10 L 192.89 401.69 L 189.73 401.12 L 186.60 400.40 L 183.51 399.52 L 180.45 398.50 L 177.45 397.33 L 174.50 396.01 L 171.62 394.55 L 168.82 392.96 L 166.10 391.23 L 163.47 389.37 L 160.94 387.38 L 158.50 385.27 L 156.17 383.05 L 153.94 380.71 L 151.84 378.28 L 149.87 375.76 L 148.03 373.15 L 146.33 370.46 L 144.76 367.70 L 143.33 364.86 L 142.04 361.96 L 140.89 359.00 L 139.88 355.98 L 139.01 352.91 L 138.29 349.80 L 137.73 346.65 L 137.31 343.47 L 137.04 340.26 L 136.93 337.04 L 136.98 333.82 L 137.19 330.61 L 137.56 327.40 L 138.08 324.22 L 138.75 321.07 L 139.58 317.96 L 140.55 314.89 L 141.67 311.89 L 142.93 308.95 L 144.34 306.09 L 145.88 303.29 L 147.56 300.57 L 149.37 297.93 L 151.30 295.38 L 153.36 292.92 L 155.55 290.55 L 157.85 288.29 L 160.27 286.14 L 162.79 284.11 L 165.41 282.21 L 168.12 280.43 L 170.91 278.79 L 173.76 277.29 L 176.68 275.93 L 179.65 274.74 L 182.67 273.69 L 185.75 272.78 L 188.88 272.03 L 192.05 271.42 L 195.26 270.97 L 198.48 270.67 L 201.71 270.53 L 204.92 270.55 L 208.12 270.73 L 211.30 271.06 L 214.46 271.54 L 217.62 272.16 L 220.78 272.91 L 223.92 273.76 L 227.05 274.65 L 230.19 275.50 L 233.35 276.20 L 236.54 276.67 L 239.74 276.87 L 242.94 276.76 L 246.11 276.33 L 249.23 275.58 L 252.25 274.52 L 255.16 273.15 L 257.92 271.50 L 260.50 269.57 L 262.87 267.40 L 265.01 265.00 L 266.89 262.41 L 268.49 259.65 L 269.81 256.77 L 270.84 253.77 L 271.61 250.70 L 272.15 247.57 L 272.54 244.41 L 272.83 241.25 L 273.09 238.08 L 273.40 234.94 L 273.82 231.82 L 274.38 228.72 L 275.09 225.65 L 275.97 222.62 L 277.02 219.61 L 278.23 216.66 L 279.60 213.75 L 281.13 210.92 L 282.80 208.17 L 284.63 205.52 L 286.58 202.97 L 288.67 200.54 L 290.89 198.23 L 293.21 196.05 L 295.64 194.00 L 298.17 192.09 L 300.77 190.33 L 303.46 188.71 L 306.21 187.25 L 309.03 185.94 L 311.91 184.78 L 314.84 183.77 L 317.81 182.92 L 320.83 182.22 L 323.89 181.69 L 326.98 181.32 L 330.11 181.13 L 333.28 181.12 L 336.53 181.30 L 339.88 181.67 L 343.31 182.23 L 346.77 182.97 L 350.16 183.87 L 353.42 184.93 L 356.54 186.14 L 359.55 187.52 L 362.44 189.06 L 365.24 190.77 L 367.93 192.63 L 370.51 194.63 L 372.98 196.77 L 375.32 199.04 L 377.52 201.43 L 379.59 203.94 L 381.52 206.54 L 383.30 209.25 L 384.92 212.04 L 386.38 214.89 L 387.69 217.82 L 388.83 220.80 L 389.81 223.84 L 390.62 226.93 L 391.27 230.05 L 391.75 233.21 L 392.05 236.39 L 392.19 239.59 L 392.15 242.79 L 391.94 245.99 L 391.56 249.17 L 391.01 252.33 L 390.28 255.45 L 389.38 258.54 L 388.31 261.59 L 387.07 264.58 L 385.68 267.51 L 384.12 270.37 L 382.40 273.14 L 380.55 275.81 L 378.56 278.38 L 376.43 280.82 L 374.18 283.14 L 371.80 285.33 L 369.31 287.39 L 366.70 289.31 L 364.01 291.09 L 361.21 292.72 L 358.34 294.19 L 355.39 295.50 L 352.36 296.64 L 349.28 297.63 L 346.15 298.44 L 342.97 299.08 L 339.76 299.56 Z" />
</symbol>
<symbol id="bl1">
<path d="M 277.31 211.99 L 276.67 215.23 L 276.04 218.47 L 275.41 221.71 L 274.81 224.96 L 274.26 228.21 L 273.78 231.47 L 273.39 234.74 L 273.07 238.03 L 272.79 241.32 L 272.48 244.60 L 272.08 247.86 L 271.49 251.08 L 270.66 254.24 L 269.54 257.30 L 268.14 260.23 L 266.46 263.00 L 264.51 265.58 L 262.31 267.95 L 259.88 270.08 L 257.24 271.94 L 254.43 273.53 L 251.47 274.82 L 248.39 275.80 L 245.24 276.46 L 242.02 276.79 L 238.79 276.80 L 235.57 276.47 L 232.41 275.82 L 229.32 274.87 L 226.34 273.63 L 223.47 272.16 L 220.69 270.52 L 217.97 268.77 L 215.27 266.97 L 212.58 265.14 L 209.90 263.31 L 207.24 261.46 L 204.58 259.61 L 201.93 257.76 L 199.28 255.91 L 196.63 254.08 L 193.98 252.25 L 191.33 250.43 L 188.67 248.61 L 186.01 246.81 L 183.34 245.01 L 180.67 243.23 L 178.00 241.45 L 175.33 239.67 L 172.66 237.90 L 169.99 236.13 L 167.32 234.35 L 164.65 232.57 L 161.97 230.79 L 159.30 229.00 L 156.63 227.22 L 153.95 225.43 L 151.27 223.63 L 148.60 221.83 L 145.92 220.03 L 143.25 218.22 L 140.58 216.41 L 137.90 214.61 L 135.22 212.81 L 132.54 211.00 L 129.86 209.18 L 127.18 207.34 L 124.53 205.47 L 121.91 203.54 L 119.34 201.55 L 116.83 199.48 L 114.37 197.35 L 111.98 195.14 L 109.66 192.85 L 107.40 190.50 L 105.22 188.08 L 103.12 185.60 L 101.09 183.05 L 99.14 180.44 L 97.27 177.77 L 95.48 175.04 L 93.77 172.25 L 92.15 169.41 L 90.60 166.52 L 89.15 163.58 L 87.78 160.59 L 86.51 157.57 L 85.33 154.51 L 84.24 151.41 L 83.25 148.29 L 82.36 145.13 L 81.57 141.95 L 80.87 138.75 L 80.27 135.52 L 79.77 132.28 L 79.36 129.01 L 79.06 125.73 L 78.86 122.45 L 78.76 119.16 L 78.76 115.87 L 78.86 112.58 L 79.06 109.29 L 79.37 106.02 L 79.77 102.75 L 80.27 99.50 L 80.87 96.26 L 81.57 93.05 L 82.37 89.85 L 83.27 86.69 L 84.26 83.55 L 85.35 80.44 L 86.53 77.37 L 87.81 74.34 L 89.17 71.34 L 90.63 68.39 L 92.18 65.49 L 93.82 62.62 L 95.55 59.81 L 97.38 57.05 L 99.29 54.33 L 101.28 51.68 L 103.37 49.08 L 105.53 46.54 L 107.77 44.07 L 110.09 41.67 L 112.48 39.34 L 114.94 37.09 L 117.47 34.91 L 120.06 32.82 L 122.71 30.81 L 125.43 28.89 L 128.20 27.04 L 131.03 25.29 L 133.91 23.63 L 136.84 22.05 L 139.82 20.56 L 142.84 19.18 L 145.90 17.88 L 149.00 16.68 L 152.13 15.58 L 155.30 14.57 L 158.48 13.66 L 161.70 12.85 L 164.93 12.14 L 168.18 11.53 L 171.45 11.02 L 174.73 10.61 L 178.02 10.31 L 181.31 10.10 L 184.61 10.00 L 187.91 10.00 L 191.21 10.10 L 194.50 10.30 L 197.79 10.60 L 201.06 11.00 L 204.32 11.51 L 207.56 12.11 L 210.77 12.81 L 213.97 13.61 L 217.14 14.51 L 220.28 15.50 L 223.39 16.59 L 226.46 17.78 L 229.50 19.05 L 232.49 20.42 L 235.45 21.88 L 238.36 23.44 L 241.22 25.08 L 244.02 26.81 L 246.77 28.62 L 249.46 30.51 L 252.09 32.49 L 254.66 34.54 L 257.16 36.67 L 259.60 38.88 L 261.97 41.16 L 264.27 43.51 L 266.49 45.92 L 268.63 48.41 L 270.70 50.95 L 272.69 53.56 L 274.60 56.23 L 276.43 58.96 L 278.17 61.75 L 279.83 64.59 L 281.41 67.49 L 282.89 70.43 L 284.28 73.42 L 285.58 76.45 L 286.79 79.52 L 287.90 82.61 L 288.91 85.73 L 289.83 88.89 L 290.65 92.07 L 291.38 95.27 L 292.00 98.50 L 292.53 101.74 L 292.95 105.01 L 293.28 108.28 L 293.50 111.57 L 293.63 114.86 L 293.65 118.15 L 293.58 121.44 L 293.40 124.72 L 293.13 127.99 L 292.76 131.25 L 292.32 134.50 L 291.81 137.74 L 291.24 140.98 L 290.63 144.21 L 290.00 147.43 L 289.35 150.66 L 288.70 153.88 L 288.06 157.11 L 287.41 160.33 L 286.77 163.55 L 286.14 166.78 L 285.52 170.00 L 284.89 173.23 L 284.27 176.45 L 283.65 179.67 L 283.03 182.89 L 282.41 186.11 L 281.79 189.34 L 281.16 192.56 L 280.53 195.79 L 279.88 199.03 L 279.24 202.26 L 278.60 205.50 L 277.95 208.75 Z" />
</symbol>
<symbol id="bl2">
<path d="M 373.86 285.14 L 372.25 287.21 L 370.64 289.28 L 369.03 291.34 L 367.43 293.40 L 365.84 295.44 L 364.24 297.49 L 362.64 299.53 L 361.05 301.57 L 359.45 303.61 L 357.87 305.67 L 356.28 307.72 L 354.70 309.78 L 353.11 311.84 L 351.52 313.91 L 349.93 315.98 L 348.35 318.07 L 346.77 320.16 L 345.20 322.24 L 343.62 324.32 L 342.05 326.40 L 340.48 328.46 L 338.91 330.51 L 337.33 332.56 L 335.75 334.61 L 334.17 336.67 L 332.57 338.73 L 330.97 340.80 L 329.33 342.85 L 327.65 344.87 L 325.87 346.82 L 323.97 348.68 L 321.89 350.45 L 319.61 352.11 L 317.12 353.65 L 314.49 355.02 L 311.82 356.18 L 309.16 357.08 L 306.53 357.72 L 303.92 358.11 L 301.33 358.26 L 298.74 358.19 L 296.18 357.89 L 293.66 357.39 L 291.19 356.68 L 288.79 355.78 L 286.48 354.70 L 284.26 353.44 L 282.16 352.01 L 280.18 350.42 L 278.34 348.67 L 276.65 346.77 L 275.10 344.74 L 273.72 342.58 L 272.52 340.33 L 271.50 337.99 L 270.66 335.57 L 270.01 333.09 L 269.55 330.58 L 269.26 328.03 L 269.12 325.48 L 269.10 322.91 L 269.17 320.35 L 269.30 317.79 L 269.44 315.22 L 269.59 312.64 L 269.74 310.06 L 269.88 307.46 L 270.01 304.86 L 270.14 302.26 L 270.26 299.66 L 270.39 297.06 L 270.51 294.47 L 270.62 291.89 L 270.73 289.32 L 270.84 286.75 L 270.95 284.17 L 271.05 281.59 L 271.16 279.00 L 271.28 276.42 L 271.40 273.82 L 271.53 271.22 L 271.67 268.61 L 271.81 266.01 L 271.95 263.40 L 272.09 260.79 L 272.22 258.19 L 272.34 255.59 L 272.46 253.01 L 272.56 250.42 L 272.64 247.85 L 272.72 245.28 L 272.80 242.71 L 272.91 240.14 L 273.07 237.55 L 273.30 234.95 L 273.63 232.35 L 274.05 229.78 L 274.57 227.22 L 275.20 224.68 L 275.92 222.17 L 276.71 219.68 L 277.55 217.20 L 278.42 214.74 L 279.30 212.29 L 280.20 209.85 L 281.10 207.43 L 282.01 205.02 L 282.93 202.60 L 283.86 200.18 L 284.80 197.76 L 285.73 195.33 L 286.67 192.89 L 287.62 190.44 L 288.57 188.00 L 289.51 185.57 L 290.45 183.15 L 291.38 180.73 L 292.31 178.32 L 293.24 175.91 L 294.18 173.49 L 295.13 171.07 L 296.09 168.64 L 297.04 166.19 L 297.99 163.74 L 298.94 161.28 L 299.89 158.81 L 300.83 156.34 L 301.78 153.86 L 302.73 151.38 L 303.67 148.90 L 304.61 146.42 L 305.55 143.94 L 306.48 141.48 L 307.40 139.02 L 308.33 136.57 L 309.27 134.12 L 310.22 131.67 L 311.18 129.22 L 312.18 126.78 L 313.22 124.35 L 314.34 121.96 L 315.55 119.63 L 316.89 117.35 L 318.34 115.15 L 319.93 113.04 L 321.64 111.03 L 323.46 109.12 L 325.39 107.33 L 327.43 105.65 L 329.57 104.11 L 331.79 102.71 L 334.09 101.44 L 336.46 100.31 L 338.89 99.33 L 341.38 98.50 L 343.91 97.82 L 346.48 97.30 L 349.06 96.92 L 351.66 96.71 L 354.26 96.66 L 356.86 96.76 L 359.45 97.02 L 362.02 97.43 L 364.56 98.00 L 367.07 98.71 L 369.52 99.57 L 371.92 100.58 L 374.26 101.73 L 376.51 103.02 L 378.69 104.44 L 380.78 106.00 L 382.78 107.68 L 384.68 109.48 L 386.47 111.39 L 388.14 113.41 L 389.68 115.52 L 391.10 117.72 L 392.38 120.01 L 393.52 122.37 L 394.52 124.79 L 395.37 127.28 L 396.08 129.81 L 396.63 132.38 L 397.03 134.97 L 397.29 137.57 L 397.43 140.18 L 397.47 142.81 L 397.44 145.44 L 397.37 148.07 L 397.28 150.71 L 397.19 153.35 L 397.10 155.99 L 397.00 158.63 L 396.90 161.26 L 396.80 163.90 L 396.69 166.55 L 396.57 169.20 L 396.45 171.85 L 396.32 174.50 L 396.19 177.16 L 396.06 179.81 L 395.93 182.45 L 395.80 185.08 L 395.67 187.70 L 395.53 190.31 L 395.40 192.92 L 395.25 195.53 L 395.10 198.15 L 394.95 200.76 L 394.79 203.38 L 394.63 206.00 L 394.47 208.63 L 394.31 211.26 L 394.16 213.90 L 394.01 216.55 L 393.86 219.19 L 393.72 221.82 L 393.57 224.45 L 393.43 227.06 L 393.29 229.67 L 393.15 232.27 L 393.01 234.87 L 392.86 237.49 L 392.69 240.10 L 392.49 242.72 L 392.23 245.34 L 391.90 247.96 L 391.49 250.55 L 390.98 253.13 L 390.37 255.68 L 389.65 258.21 L 388.82 260.69 L 387.88 263.14 L 386.83 265.53 L 385.68 267.88 L 384.44 270.17 L 383.10 272.42 L 381.68 274.61 L 380.19 276.77 L 378.65 278.89 L 377.07 280.99 L 375.47 283.07 Z" />
</symbol>
<symbol id="bl3">
<path d="M 421.20 415.57 L 421.24 418.75 L 421.14 421.93 L 420.89 425.10 L 420.50 428.26 L 419.97 431.40 L 419.31 434.51 L 418.52 437.58 L 417.60 440.61 L 416.55 443.59 L 415.37 446.52 L 414.06 449.39 L 412.64 452.19 L 411.08 454.92 L 409.42 457.58 L 407.64 460.16 L 405.75 462.66 L 403.75 465.08 L 401.65 467.41 L 399.43 469.65 L 397.12 471.80 L 394.71 473.85 L 392.21 475.79 L 389.63 477.63 L 386.97 479.35 L 384.24 480.95 L 381.44 482.44 L 378.58 483.79 L 375.66 485.02 L 372.68 486.11 L 369.67 487.07 L 366.63 487.89 L 363.56 488.58 L 360.46 489.13 L 357.33 489.55 L 354.18 489.84 L 351.01 489.99 L 347.84 490.00 L 344.67 489.87 L 341.51 489.60 L 338.39 489.19 L 335.32 488.64 L 332.28 487.97 L 329.28 487.17 L 326.33 486.25 L 323.43 485.20 L 320.56 484.03 L 317.74 482.73 L 314.96 481.30 L 312.24 479.75 L 309.59 478.07 L 307.01 476.28 L 304.52 474.38 L 302.12 472.38 L 299.82 470.28 L 297.60 468.09 L 295.49 465.81 L 293.47 463.43 L 291.55 460.96 L 289.75 458.40 L 288.04 455.76 L 286.46 453.04 L 285.00 450.26 L 283.65 447.42 L 282.44 444.52 L 281.36 441.58 L 280.40 438.61 L 279.57 435.60 L 278.86 432.56 L 278.28 429.49 L 277.82 426.40 L 277.44 423.29 L 277.13 420.18 L 276.85 417.07 L 276.59 413.96 L 276.35 410.87 L 276.10 407.78 L 275.86 404.70 L 275.61 401.63 L 275.35 398.57 L 275.07 395.52 L 274.78 392.47 L 274.49 389.41 L 274.19 386.34 L 273.88 383.27 L 273.57 380.19 L 273.26 377.11 L 272.96 374.03 L 272.68 370.95 L 272.42 367.88 L 272.15 364.79 L 271.88 361.71 L 271.60 358.63 L 271.32 355.54 L 271.04 352.47 L 270.78 349.40 L 270.51 346.34 L 270.24 343.29 L 269.96 340.25 L 269.67 337.22 L 269.35 334.20 L 268.98 331.19 L 268.55 328.18 L 268.02 325.18 L 267.40 322.19 L 266.65 319.23 L 265.76 316.29 L 264.75 313.39 L 263.59 310.51 L 262.29 307.69 L 260.86 304.91 L 259.30 302.21 L 257.62 299.59 L 255.82 297.06 L 253.92 294.61 L 251.90 292.27 L 249.77 290.02 L 247.55 287.88 L 245.22 285.84 L 242.79 283.91 L 240.26 282.09 L 237.64 280.37 L 234.94 278.74 L 232.19 277.19 L 229.41 275.68 L 226.66 274.14 L 223.98 272.49 L 221.43 270.67 L 219.05 268.65 L 216.85 266.43 L 214.89 264.01 L 213.17 261.42 L 211.72 258.70 L 210.55 255.86 L 209.66 252.93 L 209.06 249.93 L 208.76 246.89 L 208.75 243.84 L 209.02 240.80 L 209.59 237.82 L 210.44 234.91 L 211.56 232.12 L 212.94 229.46 L 214.57 226.95 L 216.46 224.61 L 218.63 222.46 L 221.09 220.48 L 223.87 218.69 L 226.96 217.10 L 230.27 215.77 L 233.68 214.76 L 237.10 214.12 L 240.47 213.87 L 243.78 213.99 L 247.00 214.47 L 250.12 215.29 L 253.13 216.43 L 256.01 217.89 L 258.73 219.63 L 261.26 221.66 L 263.58 223.93 L 265.65 226.44 L 267.47 229.15 L 269.02 232.04 L 270.29 235.06 L 271.31 238.18 L 272.12 241.38 L 272.78 244.63 L 273.41 247.89 L 274.07 251.14 L 274.83 254.37 L 275.73 257.56 L 276.78 260.70 L 278.00 263.79 L 279.39 266.80 L 280.95 269.74 L 282.66 272.59 L 284.53 275.33 L 286.55 277.97 L 288.70 280.48 L 290.99 282.87 L 293.41 285.12 L 295.96 287.23 L 298.62 289.20 L 301.40 291.02 L 304.29 292.70 L 307.29 294.25 L 310.36 295.72 L 313.43 297.18 L 316.40 298.71 L 319.22 300.36 L 321.88 302.14 L 324.43 304.02 L 326.92 305.97 L 329.37 307.97 L 331.80 309.98 L 334.24 311.99 L 336.69 314.01 L 339.14 316.02 L 341.60 318.03 L 344.07 320.05 L 346.53 322.07 L 349.00 324.09 L 351.47 326.12 L 353.95 328.15 L 356.44 330.18 L 358.94 332.19 L 361.42 334.21 L 363.90 336.24 L 366.35 338.27 L 368.79 340.31 L 371.23 342.37 L 373.66 344.43 L 376.09 346.50 L 378.53 348.56 L 380.97 350.63 L 383.41 352.68 L 385.86 354.73 L 388.30 356.78 L 390.74 358.83 L 393.17 360.90 L 395.57 363.00 L 397.91 365.15 L 400.18 367.37 L 402.35 369.66 L 404.42 372.03 L 406.39 374.48 L 408.25 377.02 L 410.00 379.64 L 411.63 382.34 L 413.15 385.11 L 414.56 387.96 L 415.83 390.87 L 416.97 393.84 L 417.98 396.85 L 418.86 399.91 L 419.61 402.99 L 420.22 406.10 L 420.69 409.25 L 421.02 412.40 Z" />
</symbol>
</defs>
<!-- isDone: 0 -->
<rect width="700" height="500" style="fill:#fff;stroke-width:0" />
<use class="p0 borderLine" xlink:href="#bl0"/>
<use class="p1 borderLine" xlink:href="#bl1"/>
<use class="p2 borderLine" xlink:href="#bl2"/>
<use class="p3 borderLine" xlink:href="#bl3"/>
<use class="q0 outLine" xlink:href="#bl0"/>
<use class="q1 outLine" xlink:href="#bl1"/>
<use class="q2 outLine" xlink:href="#bl2"/>
<use class="q3 outLine" xlink:href="#bl3"/>
<circle onclick="fromCircle(8)" class="circle" cx="202.7793" cy="336.6321" r="61.5758" />
<text class="nLabel" x="202.78" y="331.63">5</text>
<text class="belong" x="202.78" y="341.63">(1)</text>
<circle onclick="fromCircle(4)" class="circle" cx="185.9432" cy="116.9800" r="103.0360" />
<text class="nLabel" x="185.94" y="111.98">14</text>
<text class="belong" x="185.94" y="121.98">(2)</text>
<circle onclick="fromCircle(5)" class="circle" cx="240.3152" cy="245.2547" r="27.5375" />
<text class="nLabel" x="240.32" y="240.25">1</text>
<text class="belong" x="240.32" y="250.25">(2, 4)</text>
<circle onclick="fromCircle(2)" class="circle" cx="354.0206" cy="139.7921" r="38.9439" />
<text class="nLabel" x="354.02" y="134.79">2</text>
<text class="belong" x="354.02" y="144.79">(3)</text>
<circle onclick="fromCircle(10)" class="circle" cx="332.7694" cy="240.4892" r="55.0750" />
<text class="nLabel" x="332.77" y="235.49">4</text>
<text class="belong" x="332.77" y="245.49">(1, 3)</text>
<circle onclick="fromCircle(3)" class="circle" cx="301.2404" cy="326.5242" r="27.5375" />
<text class="nLabel" x="301.24" y="321.52">1</text>
<text class="belong" x="301.24" y="331.52">(3, 4)</text>
<circle onclick="fromCircle(1)" class="circle" cx="349.4871" cy="418.5766" r="67.4529" />
<text class="nLabel" x="349.49" y="413.58">6</text>
<text class="belong" x="349.49" y="423.58">(4)</text>
<g id="legendBox">
<rect class="p0 borderLine" x="500.00" y="50.00" width="30.00" height="15.00" />
<rect class="q0" x="500.00" y="50.00" width="30.00" height="15.00" />
<text class="legend" x="540.00" y="65.00">fF7</text>
<rect class="p1 borderLine" x="500.00" y="90.00" width="30.00" height="15.00" />
<rect class="q1" x="500.00" y="90.00" width="30.00" height="15.00" />
<text class="legend" x="540.00" y="105.00">fM7</text>
<rect class="p2 borderLine" x="500.00" y="130.00" width="30.00" height="15.00" />
<rect class="q2" x="500.00" y="130.00" width="30.00" height="15.00" />
<text class="legend" x="540.00" y="145.00">gF7</text>
<rect class="p3 borderLine" x="500.00" y="170.00" width="30.00" height="15.00" />
<rect class="q3" x="500.00" y="170.00" width="30.00" height="15.00" />
<text class="legend" x="540.00" y="185.00">gM7</text>
</g>
</svg>
