<svg xmlns="http://www.w3.org/2000/svg" xmlns:xlink="http://www.w3.org/1999/xlink" width="700" height="500">
<defs>
<style type="text/css"><![CDATA[
  .borderLine {
	   stroke: none;
	   fill-opacity:  0.4 ;
  }
  .outLine {
	   stroke-width:  1 ;
	   fill: none;
  }
  .circle {
	   stroke: #888888;
	   stroke-width: 0.5;
	   fill: none;
    pointer-events: all;
  }
  .nLabel {
	   font-family: Arial;
    pointer-events: none;
	   font-size: 10px;
	   text-anchor: middle;
	   alignment-baseline: central;
  }
  .belong {
	   font-family: Arial;
    pointer-events: none;
	   font-size: 5px;
	   text-anchor: middle;
	   alignment-baseline: central;
  }
  .legend {
    font-family: Arial;
    font-size: 15px;
  }
  #legendBox {
    display:  inline ;
  }
  .p0{
    stroke: none;
    fill: #e6194b;
  }
  .q0{
    fill: none;
    stroke: #e6194b;
  }
  .p1{
    stroke: none;
    fill: #3cb44b;
  }
  .q1{
    fill: none;
    stroke: #3cb44b;
  }
  .p2{
    stroke: none;
    fill: #ffe119;
  }
  .q2{
    fill: none;
    stroke: #ffe119;
  }
  .p3{
    stroke: none;
    fill: #0082c8;
  }
  .q3{
    fill: none;
    stroke: #0082c8;
  }
]]>
</style>
<symbol id="bl0">
<path d="M 349.57 369.99 L 347.30 371.67 L 344.97 373.26 L 342.56 374.73 L 340.09 376.09 L 337.56 377.34 L 334.98 378.48 L 332.34 379.49 L 329.66 380.38 L 326.95 381.16 L 324.20 381.81 L 321.44 382.35 L 318.65 382.80 L 315.85 383.18 L 313.04 383.53 L 310.25 383.94 L 307.48 384.45 L 304.73 385.08 L 302.01 385.85 L 299.35 386.76 L 296.73 387.82 L 294.18 389.01 L 291.70 390.34 L 289.29 391.81 L 286.97 393.41 L 284.74 395.13 L 282.60 396.97 L 280.57 398.92 L 278.65 400.99 L 276.85 403.15 L 275.16 405.41 L 273.61 407.76 L 272.18 410.19 L 270.89 412.69 L 269.74 415.27 L 268.73 417.90 L 267.86 420.58 L 267.14 423.30 L 266.58 426.06 L 266.16 428.85 L 265.88 431.66 L 265.73 434.47 L 265.67 437.29 L 265.68 440.11 L 265.69 442.93 L 265.63 445.74 L 265.45 448.54 L 265.11 451.34 L 264.62 454.10 L 263.95 456.82 L 263.12 459.50 L 262.13 462.13 L 260.97 464.68 L 259.66 467.16 L 258.19 469.56 L 256.58 471.85 L 254.83 474.05 L 252.95 476.13 L 250.94 478.09 L 248.82 479.92 L 246.58 481.62 L 244.25 483.17 L 241.82 484.58 L 239.31 485.84 L 236.72 486.93 L 234.08 487.86 L 231.39 488.63 L 228.65 489.23 L 225.87 489.66 L 223.07 489.92 L 220.27 490.00 L 217.46 489.91 L 214.67 489.65 L 211.90 489.21 L 209.16 488.60 L 206.46 487.82 L 203.82 486.88 L 201.24 485.77 L 198.73 484.51 L 196.31 483.10 L 193.98 481.53 L 191.75 479.83 L 189.64 477.99 L 187.63 476.02 L 185.76 473.94 L 184.02 471.74 L 182.41 469.43 L 180.95 467.04 L 179.65 464.56 L 178.50 462.00 L 177.51 459.37 L 176.69 456.69 L 176.03 453.96 L 175.54 451.20 L 175.23 448.41 L 175.09 445.61 L 175.13 442.80 L 175.34 440.01 L 175.72 437.23 L 176.27 434.48 L 176.99 431.77 L 177.88 429.11 L 178.93 426.51 L 180.15 423.98 L 181.52 421.53 L 183.03 419.17 L 184.69 416.91 L 186.49 414.76 L 188.41 412.72 L 190.46 410.80 L 192.63 409.02 L 194.90 407.37 L 197.27 405.86 L 199.73 404.50 L 202.26 403.29 L 204.85 402.20 L 207.49 401.20 L 210.14 400.23 L 212.78 399.24 L 215.41 398.20 L 217.99 397.07 L 220.52 395.83 L 222.98 394.48 L 225.38 393.01 L 227.70 391.42 L 229.95 389.71 L 232.10 387.90 L 234.16 385.99 L 236.13 383.97 L 238.00 381.86 L 239.75 379.66 L 241.40 377.38 L 242.93 375.02 L 244.34 372.58 L 245.63 370.08 L 246.80 367.52 L 247.83 364.90 L 248.74 362.23 L 249.52 359.53 L 250.16 356.78 L 250.66 354.01 L 251.02 351.22 L 251.25 348.41 L 251.34 345.60 L 251.30 342.78 L 251.13 339.97 L 250.88 337.16 L 250.56 334.35 L 250.23 331.55 L 249.91 328.74 L 249.67 325.94 L 249.54 323.12 L 249.52 320.30 L 249.63 317.49 L 249.87 314.69 L 250.23 311.90 L 250.72 309.12 L 251.33 306.37 L 252.07 303.66 L 252.93 300.98 L 253.92 298.34 L 255.02 295.74 L 256.23 293.20 L 257.57 290.72 L 259.02 288.31 L 260.57 285.96 L 262.23 283.68 L 263.99 281.48 L 265.84 279.36 L 267.80 277.33 L 269.84 275.40 L 271.97 273.55 L 274.18 271.81 L 276.47 270.16 L 278.83 268.63 L 281.26 267.20 L 283.75 265.88 L 286.29 264.68 L 288.89 263.60 L 291.54 262.64 L 294.23 261.79 L 296.95 261.08 L 299.71 260.50 L 302.51 260.06 L 305.34 259.77 L 308.24 259.61 L 311.23 259.59 L 314.30 259.69 L 317.41 259.92 L 320.47 260.25 L 323.43 260.70 L 326.28 261.28 L 329.05 261.98 L 331.75 262.82 L 334.40 263.80 L 337.00 264.90 L 339.54 266.12 L 342.03 267.46 L 344.45 268.91 L 346.80 270.47 L 349.07 272.14 L 351.27 273.90 L 353.39 275.77 L 355.42 277.73 L 357.36 279.78 L 359.20 281.92 L 360.94 284.13 L 362.58 286.43 L 364.11 288.80 L 365.54 291.23 L 366.86 293.73 L 368.05 296.28 L 369.13 298.89 L 370.09 301.54 L 370.93 304.24 L 371.64 306.97 L 372.23 309.73 L 372.69 312.51 L 373.03 315.31 L 373.24 318.12 L 373.31 320.94 L 373.26 323.76 L 373.09 326.58 L 372.78 329.38 L 372.34 332.17 L 371.78 334.94 L 371.09 337.67 L 370.28 340.37 L 369.35 343.03 L 368.30 345.65 L 367.13 348.22 L 365.84 350.73 L 364.44 353.18 L 362.93 355.56 L 361.31 357.87 L 359.59 360.10 L 357.77 362.26 L 355.85 364.33 L 353.84 366.31 L 351.75 368.20 Z" />
</symbol>
<symbol id="bl1">
<path d="M 241.53 307.40 L 242.57 310.25 L 243.61 313.09 L 244.65 315.94 L 245.67 318.79 L 246.67 321.65 L 247.64 324.52 L 248.53 327.41 L 249.34 330.33 L 250.03 333.27 L 250.58 336.25 L 250.97 339.25 L 251.21 342.26 L 251.28 345.29 L 251.20 348.30 L 250.96 351.32 L 250.55 354.31 L 249.99 357.28 L 249.28 360.22 L 248.41 363.11 L 247.38 365.96 L 246.20 368.74 L 244.88 371.46 L 243.42 374.10 L 241.82 376.67 L 240.08 379.14 L 238.21 381.52 L 236.22 383.80 L 234.11 385.96 L 231.89 388.02 L 229.57 389.95 L 227.14 391.75 L 224.62 393.42 L 222.02 394.96 L 219.34 396.36 L 216.59 397.61 L 213.77 398.72 L 210.90 399.67 L 207.99 400.48 L 205.03 401.12 L 202.05 401.61 L 199.04 401.93 L 196.03 402.10 L 193.00 402.11 L 189.98 401.96 L 186.98 401.65 L 183.99 401.17 L 181.03 400.54 L 178.11 399.76 L 175.24 398.82 L 172.42 397.72 L 169.66 396.49 L 166.98 395.10 L 164.37 393.57 L 161.84 391.91 L 159.41 390.12 L 157.07 388.20 L 154.83 386.16 L 152.70 384.02 L 150.65 381.79 L 148.66 379.50 L 146.73 377.17 L 144.83 374.81 L 142.95 372.44 L 141.07 370.06 L 139.20 367.68 L 137.33 365.30 L 135.46 362.92 L 133.59 360.53 L 131.72 358.14 L 129.85 355.76 L 127.98 353.38 L 126.11 351.00 L 124.24 348.62 L 122.37 346.24 L 120.50 343.85 L 118.63 341.47 L 116.76 339.08 L 114.89 336.70 L 113.02 334.32 L 111.15 331.94 L 109.28 329.56 L 107.41 327.18 L 105.54 324.79 L 103.67 322.41 L 101.81 320.03 L 99.94 317.65 L 98.07 315.27 L 96.20 312.89 L 94.33 310.51 L 92.46 308.12 L 90.59 305.74 L 88.72 303.37 L 86.85 300.99 L 84.99 298.61 L 83.12 296.22 L 81.25 293.84 L 79.38 291.46 L 77.51 289.09 L 75.65 286.71 L 73.78 284.33 L 71.92 281.94 L 70.05 279.56 L 68.21 277.16 L 66.39 274.75 L 64.64 272.29 L 62.96 269.78 L 61.38 267.22 L 59.89 264.60 L 58.50 261.91 L 57.22 259.18 L 56.04 256.41 L 54.97 253.58 L 54.01 250.73 L 53.16 247.83 L 52.43 244.91 L 51.80 241.95 L 51.29 238.98 L 50.90 235.99 L 50.62 232.99 L 50.46 229.97 L 50.41 226.96 L 50.48 223.94 L 50.67 220.92 L 50.97 217.92 L 51.38 214.93 L 51.91 211.96 L 52.56 209.02 L 53.32 206.10 L 54.19 203.21 L 55.17 200.35 L 56.26 197.54 L 57.46 194.76 L 58.76 192.04 L 60.17 189.38 L 61.68 186.76 L 63.29 184.21 L 65.00 181.72 L 66.80 179.30 L 68.69 176.95 L 70.67 174.67 L 72.74 172.47 L 74.89 170.35 L 77.12 168.32 L 79.43 166.37 L 81.81 164.52 L 84.26 162.76 L 86.78 161.09 L 89.36 159.52 L 92.00 158.06 L 94.69 156.69 L 97.43 155.43 L 100.22 154.28 L 103.06 153.23 L 105.93 152.29 L 108.83 151.47 L 111.76 150.76 L 114.72 150.16 L 117.70 149.68 L 120.70 149.31 L 123.70 149.05 L 126.72 148.92 L 129.73 148.90 L 132.75 149.00 L 135.76 149.21 L 138.77 149.53 L 141.75 149.98 L 144.72 150.54 L 147.66 151.21 L 150.58 151.99 L 153.46 152.89 L 156.30 153.90 L 159.11 155.01 L 161.87 156.24 L 164.58 157.56 L 167.23 159.00 L 169.83 160.53 L 172.37 162.16 L 174.84 163.90 L 177.25 165.72 L 179.58 167.64 L 181.84 169.64 L 184.02 171.73 L 186.11 173.90 L 188.12 176.16 L 190.04 178.48 L 191.87 180.88 L 193.61 183.35 L 195.25 185.89 L 196.79 188.48 L 198.23 191.13 L 199.58 193.83 L 200.83 196.58 L 201.99 199.37 L 203.08 202.19 L 204.14 205.03 L 205.19 207.87 L 206.23 210.71 L 207.27 213.55 L 208.31 216.39 L 209.35 219.24 L 210.39 222.08 L 211.43 224.92 L 212.47 227.76 L 213.50 230.60 L 214.54 233.45 L 215.58 236.30 L 216.61 239.14 L 217.65 241.98 L 218.69 244.82 L 219.72 247.67 L 220.76 250.52 L 221.80 253.36 L 222.85 256.20 L 223.88 259.04 L 224.92 261.89 L 225.96 264.73 L 227.00 267.58 L 228.04 270.42 L 229.08 273.26 L 230.12 276.11 L 231.16 278.95 L 232.20 281.80 L 233.24 284.65 L 234.27 287.49 L 235.31 290.33 L 236.34 293.17 L 237.38 296.02 L 238.42 298.86 L 239.45 301.71 L 240.49 304.56 Z" />
</symbol>
<symbol id="bl2">
<path d="M 408.67 254.85 L 407.04 258.55 L 405.40 262.24 L 403.77 265.94 L 402.13 269.65 L 400.50 273.35 L 398.86 277.05 L 397.23 280.75 L 395.59 284.45 L 393.95 288.16 L 392.32 291.86 L 390.69 295.56 L 389.05 299.26 L 387.42 302.96 L 385.78 306.67 L 384.14 310.37 L 382.50 314.07 L 380.87 317.77 L 379.23 321.48 L 377.60 325.18 L 375.96 328.88 L 374.32 332.58 L 372.66 336.27 L 370.99 339.96 L 369.26 343.63 L 367.44 347.25 L 365.51 350.80 L 363.42 354.26 L 361.12 357.58 L 358.63 360.76 L 355.94 363.77 L 353.06 366.59 L 350.00 369.22 L 346.78 371.64 L 343.40 373.85 L 339.88 375.83 L 336.25 377.58 L 332.50 379.08 L 328.67 380.34 L 324.76 381.34 L 320.80 382.08 L 316.79 382.56 L 312.77 382.79 L 308.74 382.74 L 304.72 382.44 L 300.74 381.88 L 296.80 381.05 L 292.92 379.96 L 289.12 378.63 L 285.42 377.05 L 281.82 375.23 L 278.36 373.19 L 275.03 370.91 L 271.87 368.43 L 268.86 365.75 L 266.05 362.87 L 263.42 359.82 L 261.00 356.60 L 258.80 353.23 L 256.82 349.73 L 255.05 346.10 L 253.50 342.38 L 252.12 338.58 L 250.85 334.74 L 249.67 330.87 L 248.53 326.99 L 247.42 323.10 L 246.31 319.21 L 245.21 315.32 L 244.11 311.43 L 243.01 307.54 L 241.91 303.65 L 240.81 299.76 L 239.71 295.86 L 238.61 291.97 L 237.51 288.09 L 236.42 284.20 L 235.32 280.30 L 234.23 276.41 L 233.13 272.52 L 232.03 268.63 L 230.93 264.74 L 229.82 260.85 L 228.72 256.96 L 227.62 253.07 L 226.52 249.18 L 225.42 245.29 L 224.31 241.40 L 223.21 237.51 L 222.11 233.62 L 221.01 229.72 L 219.91 225.84 L 218.82 221.95 L 217.72 218.06 L 216.63 214.17 L 215.53 210.28 L 214.43 206.39 L 213.33 202.50 L 212.23 198.61 L 211.12 194.73 L 210.02 190.83 L 208.92 186.95 L 207.83 183.06 L 206.74 179.16 L 205.66 175.27 L 204.62 171.37 L 203.62 167.45 L 202.68 163.52 L 201.85 159.57 L 201.12 155.59 L 200.52 151.61 L 200.04 147.60 L 199.70 143.57 L 199.49 139.54 L 199.40 135.51 L 199.45 131.47 L 199.63 127.44 L 199.93 123.42 L 200.37 119.41 L 200.93 115.41 L 201.62 111.44 L 202.45 107.49 L 203.40 103.57 L 204.47 99.67 L 205.67 95.82 L 207.00 92.01 L 208.45 88.24 L 210.02 84.53 L 211.71 80.87 L 213.51 77.26 L 215.43 73.71 L 217.47 70.22 L 219.61 66.80 L 221.87 63.46 L 224.23 60.18 L 226.70 56.99 L 229.27 53.88 L 231.94 50.85 L 234.70 47.91 L 237.56 45.06 L 240.51 42.30 L 243.55 39.64 L 246.67 37.09 L 249.87 34.63 L 253.15 32.28 L 256.51 30.03 L 259.93 27.90 L 263.42 25.87 L 266.98 23.96 L 270.60 22.16 L 274.27 20.48 L 277.99 18.93 L 281.77 17.49 L 285.58 16.17 L 289.44 14.98 L 293.34 13.92 L 297.26 12.98 L 301.22 12.16 L 305.20 11.48 L 309.20 10.92 L 313.22 10.50 L 317.24 10.20 L 321.28 10.04 L 325.32 10.00 L 329.35 10.10 L 333.39 10.32 L 337.41 10.68 L 341.42 11.16 L 345.42 11.77 L 349.39 12.51 L 353.33 13.38 L 357.25 14.38 L 361.13 15.50 L 364.97 16.75 L 368.77 18.12 L 372.53 19.61 L 376.23 21.22 L 379.88 22.95 L 383.48 24.80 L 387.01 26.76 L 390.48 28.84 L 393.87 31.02 L 397.20 33.32 L 400.45 35.72 L 403.62 38.23 L 406.70 40.83 L 409.70 43.53 L 412.62 46.33 L 415.44 49.22 L 418.17 52.20 L 420.79 55.27 L 423.32 58.42 L 425.75 61.65 L 428.07 64.96 L 430.28 68.34 L 432.38 71.79 L 434.37 75.30 L 436.24 78.88 L 438.00 82.52 L 439.64 86.21 L 441.16 89.95 L 442.56 93.74 L 443.83 97.57 L 444.98 101.44 L 446.01 105.34 L 446.90 109.28 L 447.67 113.25 L 448.32 117.24 L 448.83 121.24 L 449.21 125.26 L 449.47 129.29 L 449.59 133.33 L 449.58 137.37 L 449.44 141.40 L 449.17 145.43 L 448.77 149.44 L 448.24 153.45 L 447.58 157.43 L 446.79 161.39 L 445.88 165.33 L 444.84 169.23 L 443.68 173.10 L 442.40 176.92 L 441.00 180.71 L 439.52 184.47 L 437.98 188.21 L 436.39 191.93 L 434.78 195.64 L 433.16 199.34 L 431.53 203.04 L 429.89 206.74 L 428.26 210.44 L 426.63 214.14 L 425.00 217.84 L 423.36 221.54 L 421.73 225.24 L 420.10 228.94 L 418.47 232.64 L 416.83 236.34 L 415.20 240.04 L 413.57 243.74 L 411.94 247.44 L 410.30 251.14 Z" />
</symbol>
<symbol id="bl3">
<path d="M 368.66 432.37 L 368.72 435.19 L 368.64 438.00 L 368.40 440.80 L 368.00 443.58 L 367.45 446.34 L 366.75 449.07 L 365.90 451.76 L 364.91 454.39 L 363.78 456.97 L 362.50 459.48 L 361.09 461.92 L 359.55 464.27 L 357.88 466.54 L 356.09 468.71 L 354.19 470.79 L 352.18 472.75 L 350.05 474.61 L 347.84 476.35 L 345.53 477.95 L 343.13 479.43 L 340.66 480.79 L 338.12 482.00 L 335.51 483.07 L 332.86 484.00 L 330.15 484.78 L 327.41 485.41 L 324.64 485.89 L 321.84 486.22 L 319.03 486.39 L 316.21 486.41 L 313.40 486.28 L 310.60 485.99 L 307.82 485.56 L 305.06 484.96 L 302.35 484.22 L 299.67 483.34 L 297.05 482.30 L 294.50 481.13 L 292.00 479.82 L 289.59 478.37 L 287.26 476.79 L 285.01 475.09 L 282.87 473.27 L 280.83 471.33 L 278.89 469.29 L 277.07 467.14 L 275.38 464.90 L 273.80 462.56 L 272.36 460.15 L 271.05 457.65 L 269.88 455.09 L 268.85 452.47 L 267.96 449.80 L 267.21 447.09 L 266.57 444.34 L 266.01 441.57 L 265.45 438.80 L 264.84 436.04 L 264.15 433.32 L 263.32 430.63 L 262.35 427.99 L 261.23 425.42 L 259.95 422.92 L 258.52 420.51 L 256.93 418.19 L 255.22 415.97 L 253.36 413.87 L 251.38 411.88 L 249.28 410.02 L 247.06 408.30 L 244.75 406.71 L 242.34 405.26 L 239.84 403.98 L 237.27 402.85 L 234.64 401.88 L 231.95 401.07 L 229.21 400.44 L 226.44 399.97 L 223.65 399.68 L 220.84 399.55 L 218.03 399.60 L 215.23 399.80 L 212.43 400.13 L 209.64 400.54 L 206.85 400.98 L 204.06 401.42 L 201.26 401.79 L 198.46 402.04 L 195.65 402.17 L 192.84 402.16 L 190.03 402.01 L 187.23 401.73 L 184.44 401.31 L 181.69 400.75 L 178.96 400.05 L 176.27 399.23 L 173.62 398.26 L 171.03 397.17 L 168.49 395.96 L 166.02 394.62 L 163.62 393.15 L 161.28 391.58 L 159.04 389.89 L 156.87 388.08 L 154.80 386.18 L 152.83 384.17 L 150.96 382.08 L 149.19 379.89 L 147.53 377.62 L 145.99 375.26 L 144.57 372.84 L 143.27 370.34 L 142.09 367.79 L 141.04 365.18 L 140.12 362.52 L 139.33 359.82 L 138.67 357.09 L 138.16 354.32 L 137.78 351.53 L 137.53 348.73 L 137.43 345.92 L 137.47 343.10 L 137.64 340.29 L 137.96 337.50 L 138.41 334.72 L 138.99 331.97 L 139.72 329.25 L 140.57 326.57 L 141.56 323.94 L 142.68 321.36 L 143.92 318.83 L 145.29 316.37 L 146.77 313.98 L 148.38 311.67 L 150.09 309.44 L 151.92 307.30 L 153.85 305.26 L 155.90 303.31 L 158.08 301.47 L 160.39 299.72 L 162.85 298.04 L 165.47 296.43 L 168.18 294.92 L 170.93 293.55 L 173.66 292.34 L 176.37 291.30 L 179.09 290.43 L 181.82 289.71 L 184.59 289.15 L 187.38 288.72 L 190.18 288.44 L 193.00 288.31 L 195.83 288.30 L 198.64 288.45 L 201.45 288.73 L 204.23 289.14 L 207.00 289.70 L 209.73 290.40 L 212.42 291.22 L 215.07 292.18 L 217.67 293.27 L 220.22 294.48 L 222.70 295.82 L 225.11 297.29 L 227.45 298.86 L 229.70 300.56 L 231.87 302.36 L 233.95 304.27 L 235.92 306.27 L 237.80 308.38 L 239.57 310.57 L 241.23 312.85 L 242.78 315.21 L 244.21 317.64 L 245.51 320.14 L 246.69 322.70 L 247.76 325.31 L 248.71 327.97 L 249.57 330.67 L 250.38 333.38 L 251.18 336.09 L 252.00 338.79 L 252.90 341.47 L 253.89 344.11 L 255.00 346.70 L 256.22 349.25 L 257.56 351.73 L 259.00 354.16 L 260.55 356.52 L 262.22 358.80 L 263.98 361.00 L 265.84 363.12 L 267.79 365.15 L 269.84 367.09 L 271.97 368.94 L 274.19 370.69 L 276.49 372.33 L 278.85 373.87 L 281.28 375.30 L 283.78 376.62 L 286.33 377.82 L 288.94 378.91 L 291.59 379.87 L 294.28 380.71 L 297.01 381.43 L 299.77 382.03 L 302.55 382.50 L 305.36 382.85 L 308.17 383.09 L 310.99 383.24 L 313.82 383.32 L 316.64 383.39 L 319.46 383.52 L 322.27 383.75 L 325.06 384.12 L 327.83 384.62 L 330.57 385.28 L 333.27 386.08 L 335.92 387.02 L 338.52 388.12 L 341.05 389.35 L 343.51 390.71 L 345.89 392.22 L 348.19 393.85 L 350.40 395.60 L 352.50 397.47 L 354.50 399.45 L 356.39 401.54 L 358.16 403.73 L 359.81 406.01 L 361.33 408.38 L 362.71 410.83 L 363.97 413.35 L 365.08 415.94 L 366.05 418.58 L 366.87 421.27 L 367.55 424.01 L 368.07 426.78 L 368.44 429.57 Z" />
</symbol>
</defs>
<!-- isDone: 0 -->
<rect width="700" height="500" style="fill:#fff;stroke-width:0" />
<use class="p0 borderLine" xlink:href="#bl0"/>
<use class="p1 borderLine" xlink:href="#bl1"/>
<use class="p2 borderLine" xlink:href="#bl2"/>
<use class="p3 borderLine" xlink:href="#bl3"/>
<use class="q0 outLine" xlink:href="#bl0"/>
<use class="q1 outLine" xlink:href="#bl1"/>
<use class="q2 outLine" xlink:href="#bl2"/>
<use class="q3 outLine" xlink:href="#bl3"/>
<circle onclick="fromCircle(8)" class="circle" cx="220.3051" cy="444.9444" r="39.9646" />
<text class="nLabel" x="220.31" y="439.94">3</text>
<text class="belong" x="220.31" y="449.94">(1)</text>
<circle onclick="fromCircle(4)" class="circle" cx="128.5204" cy="227.0251" r="72.9651" />
<text class="nLabel" x="128.52" y="222.03">10</text>
<text class="belong" x="128.52" y="232.03">(2)</text>
<circle onclick="fromCircle(5)" class="circle" cx="194.3301" cy="345.2646" r="51.5941" />
<text class="nLabel" x="194.33" y="340.26">5</text>
<text class="belong" x="194.33" y="350.26">(2, 4)</text>
<circle onclick="fromCircle(2)" class="circle" cx="324.6608" cy="134.5630" r="119.8939" />
<text class="nLabel" x="324.66" y="129.56">27</text>
<text class="belong" x="324.66" y="139.56">(3)</text>
<circle onclick="fromCircle(10)" class="circle" cx="311.4844" cy="321.2498" r="56.5185" />
<text class="nLabel" x="311.48" y="316.25">6</text>
<text class="belong" x="311.48" y="326.25">(1, 3)</text>
<circle onclick="fromCircle(1)" class="circle" cx="317.3474" cy="435.1431" r="46.1472" />
<text class="nLabel" x="317.35" y="430.14">4</text>
<text class="belong" x="317.35" y="440.14">(4)</text>
<g id="legendBox">
<rect class="p0 borderLine" x="500.00" y="50.00" width="30.00" height="15.00" />
<rect class="q0" x="500.00" y="50.00" width="30.00" height="15.00" />
<text class="legend" x="540.00" y="65.00">fF7</text>
<rect class="p1 borderLine" x="500.00" y="90.00" width="30.00" height="15.00" />
<rect class="q1" x="500.00" y="90.00" width="30.00" height="15.00" />
<text class="legend" x="540.00" y="105.00">fM7</text>
<rect class="p2 borderLine" x="500.00" y="130.00" width="30.00" height="15.00" />
<rect class="q2" x="500.00" y="130.00" width="30.00" height="15.00" />
<text class="legend" x="540.00" y="145.00">fF12</text>
<rect class="p3 borderLine" x="500.00" y="170.00" width="30.00" height="15.00" />
<rect class="q3" x="500.00" y="170.00" width="30.00" height="15.00" />
<text class="legend" x="540.00" y="185.00">fM12</text>
</g>
</svg>
