<svg xmlns="http://www.w3.org/2000/svg" xmlns:xlink="http://www.w3.org/1999/xlink" width="700" height="500">
<defs>
<style type="text/css"><![CDATA[
  .borderLine {
	   stroke: none;
	   fill-opacity:  0.4 ;
  }
  .outLine {
	   stroke-width:  1 ;
	   fill: none;
  }
  .circle {
	   stroke: #888888;
	   stroke-width: 0.5;
	   fill: none;
    pointer-events: all;
  }
  .nLabel {
	   font-family: Arial;
    pointer-events: none;
	   font-size: 10px;
	   text-anchor: middle;
	   alignment-baseline: central;
  }
  .belong {
	   font-family: Arial;
    pointer-events: none;
	   font-size: 5px;
	   text-anchor: middle;
	   alignment-baseline: central;
  }
  .legend {
    font-family: Arial;
    font-size: 15px;
  }
  #legendBox {
    display:  inline ;
  }
  .p0{
    stroke: none;
    fill: #e6194b;
  }
  .q0{
    fill: none;
    stroke: #e6194b;
  }
  .p1{
    stroke: none;
    fill: #3cb44b;
  }
  .q1{
    fill: none;
    stroke: #3cb44b;
  }
  .p2{
    stroke: none;
    fill: #ffe119;
  }
  .q2{
    fill: none;
    stroke: #ffe119;
  }
  .p3{
    stroke: none;
    fill: #0082c8;
  }
  .q3{
    fill: none;
    stroke: #0082c8;
  }
]]>
</style>
<symbol id="bl0">
<path d="M 259.88 326.05 L 258.63 329.97 L 257.47 333.92 L 256.26 337.84 L 254.90 341.68 L 253.33 345.42 L 251.57 349.06 L 249.65 352.60 L 247.60 356.07 L 245.48 359.49 L 243.32 362.89 L 241.14 366.28 L 238.95 369.67 L 236.77 373.05 L 234.58 376.44 L 232.39 379.82 L 230.20 383.20 L 228.01 386.58 L 225.82 389.97 L 223.64 393.35 L 221.45 396.73 L 219.26 400.11 L 217.08 403.49 L 214.89 406.87 L 212.71 410.25 L 210.52 413.63 L 208.33 417.01 L 206.15 420.39 L 203.97 423.77 L 201.78 427.14 L 199.60 430.52 L 197.42 433.90 L 195.23 437.27 L 193.04 440.64 L 190.83 444.00 L 188.60 447.34 L 186.32 450.65 L 183.97 453.91 L 181.53 457.10 L 178.98 460.20 L 176.31 463.19 L 173.51 466.05 L 170.58 468.79 L 167.52 471.38 L 164.35 473.82 L 161.06 476.11 L 157.66 478.24 L 154.17 480.20 L 150.58 482.00 L 146.92 483.62 L 143.17 485.06 L 139.37 486.33 L 135.51 487.41 L 131.60 488.31 L 127.65 489.01 L 123.67 489.53 L 119.68 489.86 L 115.67 490.00 L 111.65 489.95 L 107.65 489.70 L 103.66 489.27 L 99.70 488.64 L 95.77 487.83 L 91.88 486.83 L 88.05 485.64 L 84.28 484.28 L 80.57 482.74 L 76.95 481.02 L 73.41 479.13 L 69.96 477.07 L 66.62 474.85 L 63.39 472.48 L 60.27 469.95 L 57.27 467.28 L 54.41 464.47 L 51.68 461.53 L 49.10 458.45 L 46.67 455.26 L 44.39 451.96 L 42.27 448.55 L 40.32 445.04 L 38.53 441.45 L 36.92 437.78 L 35.49 434.03 L 34.24 430.22 L 33.17 426.35 L 32.27 422.44 L 31.55 418.49 L 30.99 414.51 L 30.56 410.52 L 30.23 406.50 L 29.97 402.49 L 29.76 398.47 L 29.57 394.45 L 29.39 390.43 L 29.23 386.40 L 29.06 382.38 L 28.89 378.36 L 28.73 374.33 L 28.57 370.30 L 28.40 366.28 L 28.24 362.25 L 28.08 358.23 L 27.91 354.20 L 27.75 350.17 L 27.59 346.15 L 27.43 342.12 L 27.27 338.10 L 27.10 334.08 L 26.94 330.05 L 26.78 326.02 L 26.62 322.00 L 26.45 317.97 L 26.29 313.94 L 26.13 309.91 L 25.98 305.88 L 25.83 301.85 L 25.71 297.83 L 25.65 293.80 L 25.69 289.78 L 25.89 285.78 L 26.32 281.80 L 27.01 277.86 L 28.01 274.00 L 29.33 270.25 L 30.96 266.62 L 32.92 263.17 L 35.19 259.91 L 37.74 256.87 L 40.56 254.07 L 43.63 251.55 L 46.91 249.32 L 50.39 247.40 L 54.02 245.81 L 57.79 244.55 L 61.66 243.65 L 65.60 243.10 L 69.57 242.93 L 73.55 243.11 L 77.48 243.67 L 81.36 244.58 L 85.13 245.84 L 88.77 247.45 L 92.25 249.38 L 95.55 251.64 L 98.63 254.19 L 101.50 257.01 L 104.16 260.07 L 106.66 263.31 L 109.07 266.62 L 111.50 269.93 L 114.01 273.13 L 116.66 276.18 L 119.48 279.05 L 122.47 281.72 L 125.62 284.18 L 128.93 286.42 L 132.38 288.44 L 135.96 290.22 L 139.65 291.77 L 143.43 293.06 L 147.29 294.10 L 151.20 294.89 L 155.17 295.41 L 159.16 295.67 L 163.16 295.67 L 167.14 295.39 L 171.11 294.86 L 175.03 294.06 L 178.89 293.00 L 182.68 291.68 L 186.38 290.11 L 189.98 288.29 L 193.44 286.25 L 196.76 283.99 L 199.91 281.52 L 202.88 278.87 L 205.66 276.03 L 208.24 273.02 L 210.63 269.86 L 212.83 266.56 L 214.87 263.15 L 216.78 259.66 L 218.61 256.11 L 220.39 252.54 L 222.17 248.96 L 223.95 245.38 L 225.78 241.84 L 227.70 238.34 L 229.76 234.93 L 232.00 231.65 L 234.45 228.54 L 237.14 225.62 L 240.05 222.95 L 243.18 220.55 L 246.51 218.44 L 250.02 216.64 L 253.68 215.16 L 257.46 214.03 L 261.32 213.24 L 265.24 212.80 L 269.19 212.72 L 273.12 213.01 L 277.02 213.65 L 280.83 214.64 L 284.55 215.97 L 288.12 217.64 L 291.53 219.63 L 294.75 221.93 L 297.75 224.53 L 300.52 227.40 L 303.02 230.53 L 305.24 233.89 L 307.15 237.46 L 308.72 241.18 L 309.93 245.04 L 310.78 249.00 L 311.25 253.02 L 311.35 257.07 L 311.07 261.11 L 310.42 265.11 L 309.39 269.03 L 308.00 272.83 L 306.26 276.49 L 304.19 279.97 L 301.81 283.25 L 299.13 286.29 L 296.18 289.09 L 293.02 291.66 L 289.68 294.02 L 286.23 296.26 L 282.77 298.47 L 279.35 300.75 L 276.06 303.17 L 272.94 305.78 L 270.05 308.63 L 267.42 311.71 L 265.09 315.02 L 263.06 318.53 L 261.33 322.22 Z" />
</symbol>
<symbol id="bl1">
<path d="M 275.87 199.04 L 273.19 201.91 L 270.26 204.52 L 267.12 206.90 L 263.80 209.04 L 260.34 210.99 L 256.81 212.82 L 253.24 214.60 L 249.71 216.44 L 246.28 218.42 L 243.00 220.62 L 239.90 223.05 L 237.01 225.73 L 234.35 228.64 L 231.92 231.75 L 229.69 235.02 L 227.65 238.42 L 225.74 241.90 L 223.92 245.44 L 222.14 249.00 L 220.37 252.57 L 218.60 256.13 L 216.78 259.66 L 214.88 263.14 L 212.85 266.54 L 210.66 269.83 L 208.29 272.98 L 205.72 275.98 L 202.97 278.80 L 200.04 281.44 L 196.94 283.89 L 193.70 286.13 L 190.34 288.17 L 186.90 289.99 L 183.41 291.63 L 179.88 293.12 L 176.34 294.51 L 172.79 295.83 L 169.24 297.12 L 165.69 298.40 L 162.13 299.68 L 158.57 300.95 L 155.02 302.22 L 151.46 303.49 L 147.90 304.75 L 144.34 306.03 L 140.79 307.29 L 137.23 308.56 L 133.67 309.83 L 130.12 311.10 L 126.56 312.37 L 123.00 313.64 L 119.45 314.91 L 115.89 316.18 L 112.33 317.44 L 108.77 318.71 L 105.21 319.98 L 101.62 321.26 L 98.00 322.55 L 94.30 323.86 L 90.50 325.18 L 86.60 326.45 L 82.61 327.62 L 78.58 328.57 L 74.54 329.22 L 70.52 329.52 L 66.54 329.45 L 62.60 329.01 L 58.74 328.21 L 54.97 327.05 L 51.33 325.56 L 47.83 323.73 L 44.52 321.60 L 41.42 319.17 L 38.54 316.47 L 35.93 313.53 L 33.59 310.36 L 31.55 306.98 L 29.82 303.44 L 28.42 299.75 L 27.35 295.96 L 26.60 292.07 L 26.15 288.14 L 25.97 284.17 L 26.00 280.18 L 26.19 276.20 L 26.48 272.22 L 26.84 268.25 L 27.23 264.28 L 27.64 260.31 L 28.05 256.34 L 28.47 252.37 L 28.88 248.41 L 29.30 244.44 L 29.72 240.47 L 30.14 236.50 L 30.55 232.54 L 30.97 228.57 L 31.39 224.60 L 31.81 220.63 L 32.23 216.66 L 32.65 212.69 L 33.07 208.72 L 33.49 204.75 L 33.91 200.78 L 34.33 196.81 L 34.76 192.84 L 35.18 188.88 L 35.60 184.91 L 36.02 180.94 L 36.44 176.97 L 36.86 173.01 L 37.28 169.04 L 37.70 165.07 L 38.12 161.10 L 38.55 157.13 L 38.97 153.16 L 39.39 149.20 L 39.82 145.23 L 40.24 141.26 L 40.66 137.29 L 41.08 133.33 L 41.51 129.36 L 41.93 125.39 L 42.35 121.42 L 42.77 117.45 L 43.19 113.48 L 43.62 109.51 L 44.04 105.54 L 44.47 101.58 L 44.90 97.62 L 45.35 93.66 L 45.83 89.70 L 46.37 85.75 L 46.99 81.81 L 47.73 77.91 L 48.61 74.03 L 49.66 70.20 L 50.88 66.42 L 52.28 62.70 L 53.85 59.05 L 55.59 55.48 L 57.50 52.00 L 59.57 48.61 L 61.80 45.32 L 64.18 42.14 L 66.71 39.07 L 69.38 36.13 L 72.19 33.32 L 75.12 30.64 L 78.18 28.10 L 81.36 25.72 L 84.64 23.48 L 88.03 21.40 L 91.51 19.49 L 95.08 17.74 L 98.72 16.16 L 102.44 14.75 L 106.22 13.53 L 110.05 12.48 L 113.93 11.61 L 117.85 10.93 L 121.79 10.43 L 125.75 10.12 L 129.72 10.00 L 133.69 10.06 L 137.66 10.32 L 141.61 10.76 L 145.53 11.38 L 149.42 12.19 L 153.27 13.19 L 157.06 14.36 L 160.80 15.71 L 164.47 17.24 L 168.06 18.94 L 171.57 20.81 L 174.98 22.84 L 178.30 25.03 L 181.51 27.37 L 184.60 29.86 L 187.59 32.49 L 190.46 35.24 L 193.22 38.10 L 195.90 41.05 L 198.50 44.06 L 201.05 47.12 L 203.57 50.21 L 206.07 53.31 L 208.57 56.42 L 211.06 59.54 L 213.54 62.65 L 216.03 65.77 L 218.52 68.88 L 221.01 72.00 L 223.49 75.12 L 225.98 78.24 L 228.47 81.36 L 230.96 84.48 L 233.45 87.60 L 235.94 90.71 L 238.43 93.83 L 240.92 96.96 L 243.41 100.07 L 245.89 103.19 L 248.39 106.31 L 250.87 109.43 L 253.37 112.55 L 255.86 115.67 L 258.35 118.80 L 260.84 121.92 L 263.33 125.05 L 265.81 128.17 L 268.30 131.30 L 270.76 134.45 L 273.19 137.62 L 275.54 140.84 L 277.77 144.14 L 279.84 147.55 L 281.68 151.06 L 283.26 154.70 L 284.53 158.44 L 285.47 162.28 L 286.07 166.18 L 286.31 170.12 L 286.19 174.06 L 285.72 177.97 L 284.90 181.82 L 283.74 185.57 L 282.24 189.19 L 280.42 192.66 L 278.29 195.96 Z" />
</symbol>
<symbol id="bl2">
<path d="M 410.93 265.38 L 407.94 266.37 L 404.92 267.28 L 401.89 268.13 L 398.84 268.94 L 395.78 269.71 L 392.72 270.47 L 389.65 271.22 L 386.59 271.96 L 383.52 272.70 L 380.46 273.45 L 377.39 274.19 L 374.32 274.94 L 371.25 275.68 L 368.18 276.42 L 365.11 277.16 L 362.05 277.90 L 358.98 278.65 L 355.91 279.39 L 352.84 280.14 L 349.77 280.88 L 346.70 281.63 L 343.63 282.37 L 340.56 283.11 L 337.49 283.86 L 334.42 284.60 L 331.35 285.34 L 328.28 286.08 L 325.21 286.83 L 322.14 287.58 L 319.06 288.32 L 315.99 289.07 L 312.92 289.82 L 309.85 290.57 L 306.77 291.31 L 303.70 292.07 L 300.63 292.82 L 297.57 293.60 L 294.51 294.41 L 291.46 295.26 L 288.42 296.15 L 285.39 297.03 L 282.34 297.87 L 279.29 298.61 L 276.21 299.21 L 273.11 299.65 L 270.00 299.88 L 266.89 299.90 L 263.78 299.69 L 260.70 299.27 L 257.66 298.62 L 254.68 297.74 L 251.77 296.65 L 248.95 295.34 L 246.23 293.83 L 243.60 292.13 L 241.07 290.24 L 238.63 288.15 L 236.28 285.83 L 234.05 283.26 L 231.98 280.45 L 230.11 277.43 L 228.47 274.23 L 227.08 270.90 L 225.96 267.45 L 225.07 263.93 L 224.40 260.35 L 223.89 256.73 L 223.50 253.10 L 223.18 249.45 L 222.91 245.81 L 222.65 242.17 L 222.37 238.52 L 222.06 234.88 L 221.67 231.25 L 221.17 227.63 L 220.52 224.05 L 219.70 220.51 L 218.68 217.03 L 217.46 213.62 L 216.05 210.32 L 214.46 207.14 L 212.72 204.10 L 210.89 201.20 L 209.02 198.39 L 207.18 195.64 L 205.45 192.88 L 203.89 190.08 L 202.53 187.21 L 201.39 184.27 L 200.48 181.27 L 199.81 178.21 L 199.38 175.11 L 199.17 171.99 L 199.20 168.86 L 199.44 165.74 L 199.91 162.64 L 200.61 159.59 L 201.51 156.59 L 202.63 153.67 L 203.96 150.83 L 205.48 148.10 L 207.20 145.48 L 209.10 142.99 L 211.18 140.64 L 213.41 138.45 L 215.80 136.41 L 218.32 134.55 L 220.96 132.86 L 223.71 131.34 L 226.54 129.97 L 229.43 128.73 L 232.37 127.60 L 235.34 126.52 L 238.33 125.48 L 241.32 124.45 L 244.31 123.44 L 247.30 122.42 L 250.29 121.40 L 253.28 120.38 L 256.27 119.37 L 259.26 118.35 L 262.26 117.34 L 265.25 116.32 L 268.24 115.31 L 271.23 114.29 L 274.22 113.28 L 277.22 112.27 L 280.21 111.25 L 283.20 110.24 L 286.19 109.22 L 289.18 108.21 L 292.18 107.20 L 295.17 106.18 L 298.16 105.17 L 301.15 104.16 L 304.14 103.15 L 307.13 102.14 L 310.12 101.13 L 313.11 100.12 L 316.10 99.10 L 319.08 98.09 L 322.07 97.08 L 325.06 96.07 L 328.05 95.05 L 331.04 94.04 L 334.02 93.03 L 337.01 92.02 L 340.00 91.01 L 342.99 90.01 L 345.99 89.03 L 348.99 88.07 L 352.00 87.16 L 355.03 86.31 L 358.08 85.53 L 361.15 84.84 L 364.24 84.24 L 367.35 83.75 L 370.47 83.36 L 373.60 83.07 L 376.74 82.89 L 379.89 82.81 L 383.04 82.84 L 386.18 82.98 L 389.32 83.22 L 392.45 83.57 L 395.56 84.02 L 398.65 84.58 L 401.73 85.24 L 404.78 86.00 L 407.80 86.86 L 410.80 87.83 L 413.76 88.90 L 416.68 90.06 L 419.56 91.32 L 422.40 92.68 L 425.19 94.13 L 427.93 95.68 L 430.62 97.31 L 433.26 99.04 L 435.83 100.85 L 438.34 102.76 L 440.79 104.74 L 443.17 106.80 L 445.48 108.95 L 447.71 111.17 L 449.87 113.46 L 451.95 115.83 L 453.95 118.26 L 455.87 120.75 L 457.70 123.31 L 459.45 125.93 L 461.11 128.61 L 462.67 131.35 L 464.15 134.13 L 465.53 136.96 L 466.81 139.84 L 468.00 142.76 L 469.09 145.71 L 470.08 148.70 L 470.97 151.72 L 471.76 154.77 L 472.44 157.85 L 473.02 160.94 L 473.50 164.05 L 473.87 167.18 L 474.14 170.32 L 474.30 173.46 L 474.35 176.61 L 474.30 179.76 L 474.15 182.91 L 473.89 186.05 L 473.52 189.17 L 473.05 192.29 L 472.47 195.39 L 471.79 198.46 L 471.01 201.51 L 470.13 204.53 L 469.15 207.52 L 468.06 210.48 L 466.88 213.39 L 465.60 216.27 L 464.23 219.10 L 462.76 221.88 L 461.19 224.62 L 459.54 227.29 L 457.80 229.91 L 455.97 232.47 L 454.06 234.97 L 452.06 237.40 L 449.98 239.76 L 447.83 242.05 L 445.60 244.27 L 443.29 246.41 L 440.92 248.47 L 438.47 250.45 L 435.96 252.35 L 433.39 254.16 L 430.76 255.88 L 428.07 257.52 L 425.33 259.06 L 422.54 260.52 L 419.70 261.88 L 416.81 263.14 L 413.89 264.31 Z" />
</symbol>
<symbol id="bl3">
<path d="M 324.94 278.04 L 326.14 280.96 L 327.33 283.88 L 328.52 286.79 L 329.72 289.71 L 330.91 292.62 L 332.10 295.54 L 333.28 298.45 L 334.48 301.37 L 335.66 304.28 L 336.85 307.20 L 338.04 310.12 L 339.21 313.04 L 340.35 315.97 L 341.45 318.92 L 342.47 321.90 L 343.38 324.91 L 344.14 327.95 L 344.72 331.03 L 345.11 334.14 L 345.29 337.26 L 345.25 340.39 L 344.99 343.50 L 344.51 346.59 L 343.81 349.64 L 342.89 352.63 L 341.77 355.54 L 340.43 358.37 L 338.90 361.09 L 337.18 363.71 L 335.28 366.19 L 333.20 368.53 L 330.96 370.71 L 328.58 372.73 L 326.05 374.57 L 323.40 376.23 L 320.64 377.70 L 317.78 378.97 L 314.84 380.03 L 311.84 380.87 L 308.77 381.51 L 305.67 381.93 L 302.55 382.14 L 299.41 382.17 L 296.27 382.04 L 293.13 381.79 L 290.00 381.45 L 286.87 381.06 L 283.75 380.63 L 280.62 380.19 L 277.51 379.74 L 274.38 379.29 L 271.27 378.84 L 268.15 378.38 L 265.03 377.93 L 261.91 377.47 L 258.79 377.02 L 255.67 376.57 L 252.55 376.11 L 249.42 375.66 L 246.30 375.21 L 243.18 374.76 L 240.06 374.30 L 236.93 373.85 L 233.81 373.39 L 230.69 372.94 L 227.57 372.48 L 224.44 372.02 L 221.32 371.56 L 218.21 371.09 L 215.09 370.60 L 211.98 370.06 L 208.89 369.45 L 205.82 368.75 L 202.79 367.91 L 199.81 366.91 L 196.90 365.73 L 194.08 364.35 L 191.36 362.76 L 188.75 360.96 L 186.23 358.94 L 183.81 356.72 L 181.47 354.33 L 179.20 351.83 L 177.01 349.29 L 174.87 346.77 L 172.79 344.28 L 170.74 341.84 L 168.70 339.41 L 166.67 336.99 L 164.65 334.58 L 162.62 332.17 L 160.60 329.76 L 158.58 327.35 L 156.55 324.94 L 154.53 322.54 L 152.51 320.13 L 150.48 317.72 L 148.46 315.31 L 146.44 312.91 L 144.42 310.50 L 142.39 308.09 L 140.37 305.69 L 138.35 303.28 L 136.32 300.87 L 134.30 298.47 L 132.27 296.06 L 130.25 293.65 L 128.23 291.24 L 126.21 288.84 L 124.18 286.43 L 122.17 284.01 L 120.16 281.58 L 118.16 279.13 L 116.20 276.64 L 114.26 274.07 L 112.35 271.37 L 110.50 268.53 L 108.71 265.51 L 107.02 262.32 L 105.49 259.01 L 104.14 255.59 L 103.00 252.10 L 102.08 248.55 L 101.38 244.96 L 100.90 241.34 L 100.65 237.69 L 100.62 234.04 L 100.81 230.39 L 101.22 226.76 L 101.85 223.16 L 102.70 219.60 L 103.75 216.10 L 105.02 212.68 L 106.50 209.33 L 108.17 206.08 L 110.04 202.94 L 112.09 199.91 L 114.32 197.01 L 116.73 194.26 L 119.29 191.65 L 122.01 189.20 L 124.88 186.93 L 127.88 184.83 L 131.00 182.92 L 134.24 181.21 L 137.59 179.69 L 141.01 178.37 L 144.48 177.21 L 147.95 176.18 L 151.34 175.21 L 154.62 174.25 L 157.78 173.26 L 160.83 172.18 L 163.79 170.99 L 166.69 169.70 L 169.52 168.29 L 172.30 166.77 L 175.02 165.16 L 177.69 163.46 L 180.31 161.69 L 182.90 159.86 L 185.46 158.01 L 188.01 156.13 L 190.56 154.25 L 193.11 152.36 L 195.65 150.48 L 198.20 148.59 L 200.74 146.71 L 203.29 144.82 L 205.84 142.94 L 208.39 141.07 L 210.96 139.21 L 213.55 137.39 L 216.18 135.64 L 218.87 133.98 L 221.63 132.43 L 224.46 131.05 L 227.38 129.85 L 230.36 128.85 L 233.40 128.05 L 236.50 127.48 L 239.62 127.13 L 242.77 127.01 L 245.91 127.11 L 249.04 127.44 L 252.14 127.99 L 255.19 128.76 L 258.18 129.74 L 261.09 130.94 L 263.90 132.35 L 266.61 133.95 L 269.19 135.74 L 271.64 137.71 L 273.94 139.86 L 276.08 142.16 L 278.05 144.61 L 279.84 147.20 L 281.43 149.91 L 282.83 152.73 L 284.02 155.64 L 284.99 158.65 L 285.75 161.73 L 286.30 164.90 L 286.66 168.14 L 286.87 171.44 L 287.00 174.79 L 287.11 178.16 L 287.27 181.53 L 287.53 184.89 L 287.89 188.23 L 288.37 191.55 L 288.97 194.84 L 289.68 198.12 L 290.52 201.37 L 291.47 204.58 L 292.53 207.76 L 293.71 210.90 L 294.99 214.00 L 296.39 217.05 L 297.89 220.05 L 299.49 223.00 L 301.17 225.90 L 302.89 228.76 L 304.60 231.60 L 306.23 234.44 L 307.75 237.29 L 309.16 240.16 L 310.49 243.05 L 311.75 245.96 L 312.97 248.86 L 314.18 251.78 L 315.38 254.70 L 316.58 257.61 L 317.77 260.53 L 318.97 263.45 L 320.16 266.37 L 321.36 269.29 L 322.55 272.20 L 323.75 275.12 Z" />
</symbol>
</defs>
<!-- isDone: 0 -->
<rect width="700" height="500" style="fill:#fff;stroke-width:0" />
<use class="p0 borderLine" xlink:href="#bl0"/>
<use class="p1 borderLine" xlink:href="#bl1"/>
<use class="p2 borderLine" xlink:href="#bl2"/>
<use class="p3 borderLine" xlink:href="#bl3"/>
<use class="q0 outLine" xlink:href="#bl0"/>
<use class="q1 outLine" xlink:href="#bl1"/>
<use class="q2 outLine" xlink:href="#bl2"/>
<use class="q3 outLine" xlink:href="#bl3"/>
<circle onclick="fromCircle(8)" class="circle" cx="114.2861" cy="406.6250" r="80.6001" />
<text class="nLabel" x="114.29" y="401.62">4</text>
<text class="belong" x="114.29" y="411.62">(1)</text>
<circle onclick="fromCircle(12)" class="circle" cx="69.1617" cy="286.3593" r="40.3001" />
<text class="nLabel" x="69.16" y="281.36">1</text>
<text class="belong" x="69.16" y="291.36">(1, 2)</text>
<circle onclick="fromCircle(4)" class="circle" cx="129.9479" cy="93.3357" r="80.6001" />
<text class="nLabel" x="129.95" y="88.34">4</text>
<text class="belong" x="129.95" y="98.34">(2)</text>
<circle onclick="fromCircle(7)" class="circle" cx="243.0541" cy="170.5767" r="40.3001" />
<text class="nLabel" x="243.05" y="165.58">1</text>
<text class="belong" x="243.05" y="175.58">(2, 3, 4)</text>
<circle onclick="fromCircle(5)" class="circle" cx="160.9604" cy="235.3233" r="56.9929" />
<text class="nLabel" x="160.96" y="230.32">2</text>
<text class="belong" x="160.96" y="240.32">(2, 4)</text>
<circle onclick="fromCircle(2)" class="circle" cx="381.3966" cy="176.2493" r="90.1137" />
<text class="nLabel" x="381.40" y="171.25">5</text>
<text class="belong" x="381.40" y="181.25">(3)</text>
<circle onclick="fromCircle(11)" class="circle" cx="268.2048" cy="256.0810" r="40.3001" />
<text class="nLabel" x="268.20" y="251.08">1</text>
<text class="belong" x="268.20" y="261.08">(1, 3, 4)</text>
<circle onclick="fromCircle(1)" class="circle" cx="301.7767" cy="338.5441" r="40.3001" />
<text class="nLabel" x="301.78" y="333.54">1</text>
<text class="belong" x="301.78" y="343.54">(4)</text>
<circle onclick="fromCircle(9)" class="circle" cx="214.4881" cy="325.7750" r="40.3001" />
<text class="nLabel" x="214.49" y="320.77">1</text>
<text class="belong" x="214.49" y="330.77">(1, 4)</text>
<g id="legendBox">
<rect class="p0 borderLine" x="500.00" y="50.00" width="30.00" height="15.00" />
<rect class="q0" x="500.00" y="50.00" width="30.00" height="15.00" />
<text class="legend" x="540.00" y="65.00">gF7</text>
<rect class="p1 borderLine" x="500.00" y="90.00" width="30.00" height="15.00" />
<rect class="q1" x="500.00" y="90.00" width="30.00" height="15.00" />
<text class="legend" x="540.00" y="105.00">gM7</text>
<rect class="p2 borderLine" x="500.00" y="130.00" width="30.00" height="15.00" />
<rect class="q2" x="500.00" y="130.00" width="30.00" height="15.00" />
<text class="legend" x="540.00" y="145.00">gF12</text>
<rect class="p3 borderLine" x="500.00" y="170.00" width="30.00" height="15.00" />
<rect class="q3" x="500.00" y="170.00" width="30.00" height="15.00" />
<text class="legend" x="540.00" y="185.00">gM12</text>
</g>
</svg>
